<svg width="29" height="29" viewBox="0 0 29 29" fill="none" xmlns="http://www.w3.org/2000/svg">
<path d="M26.7067 6.98229L13.9867 19.7022C12.72 20.9689 8.95999 21.5556 8.11999 20.7156C7.27999 19.8756 7.85333 16.1156 9.11999 14.8489L21.8534 2.11559C22.1674 1.773 22.5475 1.49761 22.971 1.30601C23.3943 1.11441 23.8522 1.01055 24.3168 1.00076C24.7814 0.990988 25.2432 1.07544 25.6743 1.24905C26.1054 1.42267 26.4968 1.68187 26.825 2.01093C27.1531 2.34 27.4112 2.73213 27.5836 3.16368C27.756 3.59524 27.8394 4.05724 27.8283 4.52184C27.8172 4.98644 27.712 5.44403 27.5194 5.86689C27.3266 6.28976 27.0502 6.66921 26.7067 6.98229Z" stroke="black" stroke-width="2" stroke-linecap="round" stroke-linejoin="round"/>
<path d="M13 3.78223H6.33333C4.91884 3.78223 3.56237 4.34412 2.56217 5.34432C1.56199 6.34452 1 7.70107 1 9.11556V22.4489C1 23.8634 1.56199 25.22 2.56217 26.2201C3.56237 27.2204 4.91884 27.7822 6.33333 27.7822H21C23.9467 27.7822 25 25.3822 25 22.4489V15.7822" stroke="black" stroke-width="2" stroke-linecap="round" stroke-linejoin="round"/>
</svg>
