<svg width="26" height="30" viewBox="0 0 26 30" fill="none" xmlns="http://www.w3.org/2000/svg">
<path d="M22 5.66667L20.7987 24.3534C20.6935 25.99 20.6408 26.8084 20.3 27.4289C19.9999 27.9752 19.5472 28.4143 19.0017 28.6886C18.382 29 17.591 29 16.0093 29H9.99065C8.4089 29 7.61803 29 6.99833 28.6886C6.45275 28.4143 6.00008 27.9752 5.69998 27.4289C5.3591 26.8084 5.3065 25.99 5.20129 24.3534L4 5.66667M1 5.66667H25M19 5.66667L18.5941 4.40366C18.2006 3.17972 18.0039 2.56775 17.6391 2.1153C17.3169 1.71576 16.9031 1.4065 16.4357 1.21588C15.9064 1 15.2845 1 14.0404 1H11.9596C10.7155 1 10.0936 1 9.56426 1.21588C9.09688 1.4065 8.68312 1.71576 8.36094 2.1153C7.99608 2.56775 7.79938 3.17972 7.40596 4.40366L7 5.66667M16 11.8889V22.7778M10 11.8889V22.7778" stroke="black" stroke-width="2" stroke-linecap="round" stroke-linejoin="round"/>
</svg>
