<svg width="300 " height="300" viewBox="0 0 500 500" fill="none" xmlns="http://www.w3.org/2000/svg">
<path d="M250 477.538C365.329 477.538 458.822 423.56 458.822 356.974C458.822 290.388 365.329 236.41 250 236.41C134.671 236.41 41.1782 290.388 41.1782 356.974C41.1782 423.56 134.671 477.538 250 477.538Z" fill="#F5F5F5"/>
<path d="M282.769 441.397C307.709 441.397 327.927 429.725 327.927 415.325C327.927 400.926 307.709 389.253 282.769 389.253C257.829 389.253 237.611 400.926 237.611 415.325C237.611 429.725 257.829 441.397 282.769 441.397Z" fill="#E0E0E0"/>
<path d="M259.302 327.05L138.512 396.8C135.114 398.762 129.178 398.516 125.254 396.25L82.3701 371.491C78.4461 369.225 78.0201 365.798 81.4181 363.836L202.208 294.086C205.606 292.124 211.542 292.37 215.466 294.636L258.35 319.395C262.274 321.66 262.701 325.088 259.302 327.05Z" fill="#E0E0E0"/>
<path d="M389.365 351.405L398.88 356.932C398.88 356.932 394.079 341.606 396.744 326.189C397.75 320.37 399.867 317.479 400.614 315.926C401.361 314.373 407.098 304.757 402.048 300.324C396.998 295.891 385.149 304.709 385.68 328.454C385.952 340.639 389.365 351.405 389.365 351.405Z" fill="#27DEBF"/>
<path opacity="0.5" d="M389.365 351.405L398.88 356.932C398.88 356.932 394.079 341.606 396.744 326.189C397.75 320.37 399.867 317.479 400.614 315.926C401.361 314.373 407.098 304.757 402.048 300.324C396.998 295.891 385.149 304.709 385.68 328.454C385.952 340.639 389.365 351.405 389.365 351.405Z" fill="black"/>
<path d="M393.788 354.406C393.612 354.406 393.447 354.298 393.383 354.123C393.347 354.024 389.749 344.033 389.939 328.01C390.129 311.89 398.6 303.294 398.686 303.209C398.854 303.042 399.128 303.041 399.295 303.211C399.463 303.38 399.463 303.653 399.294 303.821C399.211 303.903 390.987 312.272 390.802 328.019C390.614 343.871 394.157 353.727 394.194 353.825C394.276 354.049 394.161 354.297 393.937 354.379C393.888 354.398 393.838 354.406 393.788 354.406Z" fill="white"/>
<path d="M396.744 355.723L412.462 364.967C412.462 364.967 419.659 363.907 419.114 357.132C418.569 350.357 415.645 348.761 419.286 345.784C422.927 342.807 423.867 342.61 423.693 339.692C423.519 336.774 421.556 335.502 420.632 334.346C419.709 333.19 417.134 330.764 418.946 327.245C420.758 323.726 423.212 320.327 419.567 318.714C417.392 317.751 413.733 318.957 411.308 321.532C408.883 324.107 406.882 325.957 404.585 326.555C402.287 327.153 397.497 327.2 397.658 331.159C397.819 335.118 398.847 336.485 397.887 338.242C396.078 341.553 388.352 343.337 396.744 355.723Z" fill="#27DEBF"/>
<path opacity="0.2" d="M396.744 355.723L412.462 364.967C412.462 364.967 419.659 363.907 419.114 357.132C418.569 350.357 415.645 348.761 419.286 345.784C422.927 342.807 423.867 342.61 423.693 339.692C423.519 336.774 421.556 335.502 420.632 334.346C419.709 333.19 417.134 330.764 418.946 327.245C420.758 323.726 423.212 320.327 419.567 318.714C417.392 317.751 413.733 318.957 411.308 321.532C408.883 324.107 406.882 325.957 404.585 326.555C402.287 327.153 397.497 327.2 397.658 331.159C397.819 335.118 398.847 336.485 397.887 338.242C396.078 341.553 388.352 343.337 396.744 355.723Z" fill="black"/>
<path d="M403.145 359.919C402.923 359.919 402.734 359.748 402.715 359.523C402.696 359.288 400.986 335.851 417.269 320.46C417.443 320.296 417.715 320.304 417.879 320.477C418.043 320.65 418.035 320.923 417.862 321.087C401.885 336.188 403.556 359.221 403.576 359.452C403.594 359.69 403.418 359.898 403.18 359.917C403.169 359.918 403.157 359.919 403.145 359.919Z" fill="white"/>
<path d="M405.964 339.834C405.739 339.834 405.55 339.661 405.533 339.434C405.077 333.286 400.799 330.122 400.755 330.091C400.563 329.951 400.519 329.682 400.658 329.488C400.796 329.296 401.065 329.25 401.26 329.39C401.449 329.527 405.907 332.806 406.395 339.37C406.413 339.607 406.234 339.814 405.997 339.832C405.985 339.833 405.974 339.834 405.964 339.834Z" fill="white"/>
<path d="M404.803 343.833C404.699 343.833 404.597 343.796 404.514 343.722C404.337 343.563 404.323 343.291 404.482 343.114C404.652 342.924 408.75 338.494 418.228 339.796C418.464 339.829 418.629 340.047 418.597 340.282C418.564 340.518 418.347 340.681 418.111 340.651C409.119 339.417 405.163 343.65 405.124 343.691C405.038 343.785 404.921 343.833 404.803 343.833Z" fill="white"/>
<path d="M101.124 337.943L96.4249 347.892C96.4249 347.892 91.6829 332.548 80.7409 321.365C76.6109 317.144 73.2279 315.964 71.7309 315.11C70.2339 314.255 60.0549 309.591 61.6979 303.076C63.3409 296.56 78.1019 297.098 91.1359 316.953C97.8269 327.141 101.124 337.943 101.124 337.943Z" fill="#27DEBF"/>
<path opacity="0.5" d="M101.124 337.943L96.4249 347.892C96.4249 347.892 91.6829 332.548 80.7409 321.365C76.6109 317.144 73.2279 315.964 71.7309 315.11C70.2339 314.255 60.0549 309.591 61.6979 303.076C63.3409 296.56 78.1019 297.098 91.1359 316.953C97.8269 327.141 101.124 337.943 101.124 337.943Z" fill="black"/>
<path d="M98.9391 343C98.7471 343 98.5711 342.871 98.5211 342.676C98.4951 342.575 95.8211 332.448 86.6721 319.502C77.5841 306.64 66.0651 304.415 65.9491 304.394C65.7151 304.351 65.5591 304.127 65.6011 303.892C65.6441 303.658 65.8651 303.503 66.1031 303.544C66.2211 303.565 78.0741 305.837 87.3761 319.003C96.6231 332.09 99.3291 342.358 99.3551 342.461C99.4151 342.692 99.2751 342.927 99.0441 342.986C99.0111 342.996 98.9751 343 98.9391 343Z" fill="white"/>
<path d="M97.498 345.685L89.8 362.216C89.8 362.216 83.272 365.427 79.876 359.539C76.481 353.651 77.983 350.678 73.296 350.292C68.609 349.907 67.723 350.277 66.211 347.776C64.699 345.275 65.593 343.113 65.698 341.637C65.802 340.161 66.546 336.703 63.058 334.833C59.57 332.963 55.62 331.557 57.706 328.161C58.951 326.134 62.648 325.051 66.106 325.795C69.564 326.539 72.261 326.928 74.492 326.116C76.723 325.304 80.695 322.626 82.808 325.977C84.921 329.329 84.851 331.037 86.639 331.94C90.007 333.64 97.381 330.724 97.498 345.685Z" fill="#27DEBF"/>
<path opacity="0.2" d="M97.498 345.685L89.8 362.216C89.8 362.216 83.272 365.427 79.876 359.539C76.481 353.651 77.983 350.678 73.296 350.292C68.609 349.907 67.723 350.277 66.211 347.776C64.699 345.275 65.593 343.113 65.698 341.637C65.802 340.161 66.546 336.703 63.058 334.833C59.57 332.963 55.62 331.557 57.706 328.161C58.951 326.134 62.648 325.051 66.106 325.795C69.564 326.539 72.261 326.928 74.492 326.116C76.723 325.304 80.695 322.626 82.808 325.977C84.921 329.329 84.851 331.037 86.639 331.94C90.007 333.64 97.381 330.724 97.498 345.685Z" fill="black"/>
<path d="M94.3629 352.849C94.2139 352.849 94.0689 352.771 93.9888 352.633C93.8738 352.432 82.1799 332.517 60.4559 329.147C60.2209 329.111 60.0599 328.89 60.0959 328.655C60.1319 328.418 60.3529 328.254 60.5889 328.295C82.7309 331.729 94.6199 351.999 94.7369 352.203C94.8559 352.41 94.7849 352.674 94.5779 352.792C94.5109 352.83 94.4369 352.849 94.3629 352.849Z" fill="white"/>
<path d="M80.6462 337.908C80.4992 337.908 80.3542 337.831 80.2742 337.694C76.9502 332.013 78.7592 326.783 78.8382 326.563C78.9172 326.339 79.1622 326.221 79.3892 326.302C79.6142 326.382 79.7312 326.629 79.6512 326.853C79.6332 326.903 77.9052 331.936 81.0182 337.258C81.1392 337.464 81.0702 337.728 80.8642 337.848C80.7962 337.889 80.7212 337.908 80.6462 337.908Z" fill="white"/>
<path d="M71.0608 345.509C70.9438 345.509 70.8278 345.462 70.7428 345.368C70.5818 345.192 70.5948 344.919 70.7698 344.758C77.8328 338.31 83.7258 339.634 83.9718 339.692C84.2028 339.747 84.3458 339.98 84.2898 340.211C84.2358 340.442 84.0088 340.588 83.7708 340.531C83.7128 340.518 78.0538 339.276 71.3508 345.395C71.2688 345.472 71.1638 345.509 71.0608 345.509Z" fill="white"/>
<path d="M97.6078 136.505C97.6078 130.577 100.771 125.098 105.905 122.134L211.424 61.2129C214.541 59.4129 218.322 61.1019 219.317 64.2729C218.745 61.8039 217.205 59.6309 214.976 58.3029L214.6 58.0789C211.974 56.5149 208.975 55.6899 205.919 55.6899V55.6919C204.991 55.6789 204.036 55.9069 203.136 56.4269L97.6168 117.347C92.4828 120.311 89.3198 125.789 89.3198 131.718V359.912C89.3198 364.095 93.8478 366.709 97.4708 364.618L97.6078 364.539V136.505Z" fill="#37474F"/>
<path d="M211.277 308.483L105.758 369.404C102.135 371.495 97.6069 368.881 97.6069 364.698V136.505C97.6069 130.577 100.77 125.098 105.904 122.134L211.423 61.2129C215.045 59.1219 219.573 61.7359 219.573 65.9189V294.113C219.574 300.041 216.411 305.519 211.277 308.483Z" fill="#455A64"/>
<path d="M97.6078 364.699V136.505C97.6078 133.975 98.1888 131.528 99.2478 129.323L91.0888 124.27C89.9458 126.544 89.3198 129.086 89.3198 131.718V359.437V359.912V361.818C89.3198 363.66 90.2898 365.366 91.8728 366.309L96.0798 368.814C97.5368 369.682 99.2018 370.14 100.899 370.14H102.976V370.138C100.166 370.1 97.6078 367.843 97.6078 364.699Z" fill="#263238"/>
<path d="M207.645 83.146V274.945C207.645 280.18 204.852 285.018 200.318 287.635L107.139 341.432C106.392 341.863 105.601 342.06 104.828 342.073C105.908 344.574 109.036 345.818 111.636 344.317L204.815 290.52C209.349 287.902 212.142 283.065 212.142 277.83V87.932C212.143 85.247 210.028 83.304 207.645 83.146Z" fill="#37474F"/>
<path d="M109.389 340.928C110.162 340.915 110.953 340.718 111.7 340.287L204.879 286.49C209.413 283.872 212.206 279.035 212.206 273.8V82C212.644 82.029 210.807 81.879 209.506 82.631L116.327 136.428C111.793 139.046 109 143.883 109 149.118V339.017C109 339.719 109.146 340.37 109.402 340.953C109.398 340.945 109.393 340.937 109.389 340.928Z" fill="#7896FF"/>
<path d="M143.824 109.463C143.824 110.533 143.073 111.834 142.146 112.369C141.219 112.904 140.468 112.47 140.468 111.4C140.468 110.33 141.219 109.029 142.146 108.494C143.072 107.959 143.824 108.393 143.824 109.463Z" fill="#263238"/>
<path d="M150.066 105.859C150.066 106.929 149.315 108.23 148.388 108.765C147.461 109.3 146.71 108.866 146.71 107.796C146.71 106.726 147.461 105.425 148.388 104.89C149.314 104.355 150.066 104.789 150.066 105.859Z" fill="#263238"/>
<path d="M175.261 93.25L154.966 104.968C154.163 105.431 153.513 104.939 153.513 103.869C153.513 102.799 154.164 101.556 154.966 101.093L175.261 89.376C176.064 88.913 176.714 89.404 176.714 90.474C176.714 91.544 176.063 92.787 175.261 93.25Z" fill="#263238"/>
<path d="M171.827 315.682C173.039 315.682 173.823 316.968 173.823 318.957C173.823 322.084 171.867 325.854 169.552 327.191L159.845 332.796C159.327 333.095 158.84 333.247 158.399 333.247C157.187 333.247 156.403 331.962 156.403 329.972C156.403 326.845 158.359 323.075 160.674 321.738L170.381 316.134C170.9 315.834 171.386 315.682 171.827 315.682ZM171.827 314.853C171.257 314.853 170.628 315.034 169.967 315.415L160.26 321.019C157.672 322.513 155.575 326.521 155.575 329.971C155.575 332.54 156.738 334.075 158.4 334.075C158.97 334.075 159.599 333.894 160.26 333.513L169.967 327.909C172.555 326.415 174.652 322.407 174.652 318.957C174.652 316.388 173.489 314.853 171.827 314.853Z" fill="#263238"/>
<path d="M118.185 163.707V378.694C118.185 382.588 119.616 385.204 121.803 386.063L121.864 386.083L121.874 386.093L131.165 391.183L131.114 382.915L130.082 159.986L120.27 154.968C118.972 157.749 118.185 160.835 118.185 163.707Z" fill="#E6E6E6"/>
<path d="M131.67 392.031L121.614 386.521C119.122 385.492 117.685 382.585 117.685 378.694V163.707C117.685 160.88 118.442 157.702 119.817 154.757L120.037 154.287L130.581 159.68L130.582 159.984L131.614 382.913L131.67 392.031ZM122.115 385.656L130.66 390.338L130.614 382.919L129.583 160.294L120.51 155.653C119.331 158.332 118.686 161.174 118.686 163.708V378.695C118.686 382.206 119.92 384.787 121.987 385.599L122.115 385.659V385.656Z" fill="#E6E6E6"/>
<path d="M120.27 154.968L130.082 159.986L235.089 98.8967L242.1 94.8187L232.411 89.3607L232.135 89.1977V89.1877C230.592 88.2577 228.568 88.3187 226.34 89.6067L126.944 146.996C124.266 148.54 121.875 151.514 120.27 154.968Z" fill="#E0E0E0"/>
<path d="M130.082 160.487C130.004 160.487 129.926 160.469 129.855 160.432L120.043 155.414C119.804 155.291 119.704 155.002 119.817 154.758C121.522 151.087 124.029 148.1 126.694 146.563L226.091 89.1739C228.391 87.8449 230.63 87.6959 232.394 88.7599C232.42 88.7759 232.445 88.7939 232.467 88.8139L232.666 88.9329L242.346 94.3849C242.502 94.4729 242.6 94.6379 242.601 94.8169C242.602 94.9959 242.507 95.1629 242.352 95.2529L130.333 160.42C130.256 160.464 130.169 160.487 130.082 160.487ZM120.932 154.745L130.067 159.418L241.094 94.8269L231.881 89.6279C231.854 89.6119 231.829 89.5939 231.806 89.5739C230.378 88.7549 228.531 88.9199 226.591 90.0399L127.194 147.429C124.807 148.805 122.542 151.456 120.932 154.745Z" fill="#E0E0E0"/>
<path d="M127.813 169.114V383.13C127.813 386.503 128.886 388.925 130.603 390.06L131.165 390.367C132.657 391.072 134.528 390.919 136.562 389.744L184.609 362.005L235.958 331.098C240.792 328.308 244.717 322.072 244.717 315.633V101.627C244.717 98.3671 243.715 96.0061 242.1 94.8201C241.824 94.6161 241.528 94.4421 241.211 94.3191C239.749 93.6951 237.93 93.8801 235.958 95.0141L136.562 153.371C133.986 154.853 131.676 156.706 130.082 159.987C128.672 162.859 127.813 166.099 127.813 169.114Z" fill="#FAFAFA"/>
<path d="M235.958 331.097C215.505 343.298 162.297 375.054 135.958 390.918C132.509 392.995 128.12 390.509 128.12 386.483V166.416C128.12 161.321 130.821 156.608 135.216 154.032L236.436 94.7099C239.885 92.6889 244.227 95.1759 244.227 99.1739V316.533C244.227 322.506 241.088 328.037 235.958 331.097Z" fill="#FAFAFA"/>
<path d="M235.706 330.665C219.649 340.244 203.596 349.828 187.547 359.421C178.046 365.1 168.546 370.783 159.051 376.471C154.712 379.07 150.375 381.671 146.039 384.274C144.142 385.413 142.246 386.552 140.35 387.692C138.6 388.744 136.735 390.242 134.802 390.914C131.593 392.029 128.704 389.462 128.619 386.294C128.605 385.783 128.619 385.27 128.619 384.759C128.619 382.284 128.619 379.808 128.619 377.333C128.619 367.696 128.619 358.059 128.619 348.421C128.619 334.622 128.619 320.824 128.619 307.025C128.619 291.521 128.619 276.017 128.619 260.513C128.619 245.913 128.619 231.312 128.619 216.712C128.619 205.472 128.619 194.233 128.619 182.993C128.619 177.619 128.607 172.245 128.619 166.871C128.631 161.584 131.186 156.997 135.755 154.296C138.075 152.925 140.405 151.571 142.731 150.208C153.631 143.82 164.531 137.432 175.432 131.043C188.348 123.474 201.263 115.904 214.179 108.335C221.528 104.028 228.859 99.6878 236.227 95.4128C238.509 94.0888 241.382 94.2188 242.968 96.6078C243.612 97.5778 243.723 98.6558 243.727 99.7668C243.733 101.685 243.727 103.602 243.727 105.52C243.727 114.376 243.727 123.233 243.727 132.089C243.727 145.499 243.727 158.909 243.727 172.319C243.727 187.713 243.727 203.107 243.727 218.501C243.727 233.353 243.727 248.204 243.727 263.056C243.727 274.695 243.727 286.335 243.727 297.974C243.727 303.881 243.727 309.788 243.727 315.695C243.727 321.839 241.041 327.387 235.706 330.665C235.159 331.001 235.66 331.867 236.211 331.528C241.775 328.109 244.727 322.282 244.727 315.831C244.727 313.784 244.727 311.737 244.727 309.69C244.727 300.52 244.727 291.35 244.727 282.18C244.727 268.449 244.727 254.718 244.727 240.987C244.727 225.265 244.727 209.543 244.727 193.821C244.727 178.986 244.727 164.151 244.727 149.316C244.727 137.914 244.727 126.512 244.727 115.11C244.727 109.884 244.783 104.656 244.727 99.4298C244.676 94.6748 239.886 92.1448 235.849 94.4738C233.412 95.8788 230.995 97.3188 228.568 98.7408C217.368 105.305 206.167 111.869 194.967 118.433C181.935 126.071 168.902 133.709 155.87 141.346C148.957 145.398 142.021 149.414 135.129 153.501C130.342 156.34 127.636 161.273 127.62 166.809C127.615 168.609 127.62 170.408 127.62 172.208C127.62 180.953 127.62 189.698 127.62 198.444C127.62 211.895 127.62 225.347 127.62 238.798C127.62 254.453 127.62 270.108 127.62 285.763C127.62 300.813 127.62 315.862 127.62 330.912C127.62 342.878 127.62 354.844 127.62 366.81C127.62 373.018 127.62 379.226 127.62 385.434C127.62 385.778 127.609 386.123 127.62 386.467C127.738 390.233 131.361 393.116 135.068 391.875C136.956 391.243 138.738 389.825 140.438 388.803C142.371 387.64 144.305 386.479 146.239 385.317C150.562 382.722 154.887 380.129 159.212 377.537C178.123 366.207 197.048 354.901 215.976 343.601C222.72 339.575 229.465 335.55 236.21 331.526C236.763 331.199 236.261 330.334 235.706 330.665Z" fill="#EBEBEB"/>
<path d="M135.216 154.032L236.436 94.7099C239.885 92.6889 244.226 95.1759 244.226 99.1739V108.722L244.196 108.724L128.12 175.74V166.415C128.12 161.321 130.821 156.608 135.216 154.032Z" fill="#EBEBEB"/>
<path d="M204.754 206.061C215.02 188.281 215.02 169.064 204.755 163.137C194.49 157.211 177.847 166.819 167.582 184.599C157.317 202.378 157.316 221.596 167.581 227.523C177.846 233.449 194.489 223.84 204.754 206.061Z" fill="#7896FF"/>
<path opacity="0.5" d="M204.754 206.061C215.02 188.281 215.02 169.064 204.755 163.137C194.49 157.211 177.847 166.819 167.582 184.599C157.317 202.378 157.316 221.596 167.581 227.523C177.846 233.449 194.489 223.84 204.754 206.061Z" fill="white"/>
<path d="M181.458 195.443C180.806 195.443 180.278 194.915 180.278 194.263V186.49C180.278 183.055 182.608 179.019 185.583 177.301C187.223 176.354 188.826 176.237 190.097 176.971C191.368 177.705 192.068 179.152 192.068 181.045V188.818C192.068 189.47 191.54 189.998 190.888 189.998C190.236 189.998 189.708 189.47 189.708 188.818V181.045C189.708 180.045 189.42 179.305 188.917 179.014C188.414 178.724 187.629 178.844 186.763 179.344C184.527 180.635 182.638 183.907 182.638 186.489V194.262C182.638 194.915 182.11 195.443 181.458 195.443Z" fill="#37474F"/>
<path d="M195.701 183.807C195.243 183.587 194.665 183.629 194.035 183.993L178.312 193.071C177.682 193.435 177.104 194.06 176.646 194.81C176.027 195.823 175.629 197.063 175.629 198.199V211.811C175.629 212.797 175.928 213.516 176.412 213.884C176.497 213.949 176.59 213.999 176.687 214.042C177.139 214.241 177.701 214.193 178.313 213.84L194.036 204.763C195.518 203.907 196.72 201.611 196.72 199.635V186.023C196.719 184.885 196.32 184.104 195.701 183.807Z" fill="#7896FF"/>
<path d="M187.961 197.991L189.476 202.349L184.149 205.424L185.483 200.042L185.671 199.28C184.771 199.306 184.149 198.61 184.149 197.385C184.149 196.916 184.238 196.422 184.398 195.934C184.825 194.642 185.747 193.388 186.813 192.773C188.284 191.924 189.477 192.61 189.477 194.311C189.477 195.536 188.852 196.952 187.952 197.967L187.961 197.991Z" fill="#455A64"/>
<path d="M185.482 200.042L185.67 199.28C184.77 199.306 184.148 198.61 184.148 197.385C184.148 196.916 184.237 196.422 184.397 195.934L187.96 197.992L189.475 202.35L185.482 200.042Z" fill="#37474F"/>
<path d="M224.947 245.656L147.4 290.429C144.192 292.281 141.591 290.315 141.591 286.038V274.29C141.591 270.013 144.192 265.044 147.4 263.192L224.948 218.42C228.156 216.568 230.757 218.534 230.757 222.811V234.559C230.756 238.835 228.155 243.804 224.947 245.656Z" fill="#7896FF"/>
<path d="M161.355 262.133H159.855V274.567H161.355V262.133Z" fill="#FAFAFA"/>
<path d="M165.625 264.59L154.856 270.809L155.607 272.108L166.375 265.889L165.625 264.59Z" fill="#FAFAFA"/>
<path d="M157.165 265.51L156.415 266.809L164.03 271.206L164.78 269.907L157.165 265.51Z" fill="#FAFAFA"/>
<path d="M163.772 261.387L156.156 274.576L157.455 275.326L165.071 262.138L163.772 261.387Z" fill="#FAFAFA"/>
<path d="M186.924 248.206H185.424V260.641H186.924V248.206Z" fill="#FAFAFA"/>
<path d="M191.193 250.664L180.425 256.882L181.175 258.181L191.943 251.963L191.193 250.664Z" fill="#FAFAFA"/>
<path d="M182.735 251.585L181.985 252.884L189.599 257.28L190.349 255.981L182.735 251.585Z" fill="#FAFAFA"/>
<path d="M189.342 247.46L181.726 260.648L183.025 261.399L190.641 248.21L189.342 247.46Z" fill="#FAFAFA"/>
<path d="M212.492 234.28H210.992V246.714H212.492V234.28Z" fill="#FAFAFA"/>
<path d="M216.742 236.747L205.973 242.964L206.723 244.263L217.492 238.046L216.742 236.747Z" fill="#FAFAFA"/>
<path d="M208.306 237.659L207.556 238.958L215.17 243.354L215.92 242.055L208.306 237.659Z" fill="#FAFAFA"/>
<path d="M214.891 233.519L207.277 246.708L208.576 247.458L216.19 234.269L214.891 233.519Z" fill="#FAFAFA"/>
<path d="M227.254 261.843C228.292 261.843 228.756 263.394 228.756 264.931V276.679C228.756 280.251 226.554 284.541 223.947 286.045L146.4 330.817C145.914 331.098 145.462 331.246 145.094 331.246C144.056 331.246 143.592 329.695 143.592 328.158V316.41C143.592 312.838 145.794 308.548 148.401 307.044L225.949 262.272C226.433 261.991 226.885 261.843 227.254 261.843ZM227.253 259.843C226.546 259.843 225.766 260.067 224.947 260.54L147.4 305.312C144.192 307.164 141.591 312.133 141.591 316.41V328.158C141.591 331.343 143.032 333.246 145.093 333.246C145.8 333.246 146.58 333.022 147.399 332.549L224.947 287.777C228.155 285.925 230.756 280.956 230.756 276.679V264.931C230.756 261.746 229.314 259.843 227.253 259.843Z" fill="#7896FF"/>
<path d="M170.22 308.699C169.692 309.004 169.236 309.132 168.853 309.084C168.472 309.032 168.178 308.822 167.971 308.455C167.766 308.084 167.664 307.575 167.664 306.926C167.664 306.277 167.766 305.647 167.971 305.034C168.178 304.417 168.466 303.863 168.835 303.373C169.206 302.878 169.639 302.488 170.134 302.202C170.42 302.037 170.702 301.929 170.98 301.878C171.259 301.827 171.512 301.86 171.741 301.975C171.969 302.088 172.151 302.307 172.287 302.633C172.423 302.958 172.491 303.417 172.491 304.007V304.42L168.264 306.86V306.019L171.634 304.073C171.634 303.716 171.572 303.433 171.448 303.224C171.327 303.014 171.153 302.893 170.927 302.861C170.703 302.828 170.439 302.9 170.134 303.076C169.799 303.269 169.508 303.533 169.263 303.867C169.021 304.197 168.834 304.552 168.703 304.933C168.572 305.313 168.506 305.678 168.506 306.027V306.588C168.506 307.066 168.578 307.43 168.721 307.68C168.866 307.926 169.067 308.062 169.324 308.086C169.581 308.108 169.88 308.021 170.22 307.825C170.441 307.697 170.641 307.546 170.82 307.371C171.001 307.193 171.157 306.993 171.288 306.771C171.418 306.547 171.52 306.305 171.591 306.044L172.405 305.838C172.319 306.206 172.175 306.569 171.973 306.928C171.771 307.284 171.521 307.615 171.223 307.922C170.926 308.225 170.591 308.484 170.22 308.699ZM174.615 302.22V306.029L173.772 306.516V300.184L174.586 299.714V300.703L174.658 300.662C174.786 300.266 174.981 299.895 175.243 299.549C175.505 299.2 175.843 298.906 176.257 298.667C176.628 298.452 176.953 298.353 177.232 298.368C177.51 298.38 177.727 298.519 177.881 298.784C178.036 299.047 178.113 299.447 178.113 299.986V304.009L177.271 304.496V300.538C177.271 300.041 177.159 299.718 176.935 299.57C176.711 299.419 176.404 299.456 176.014 299.681C175.745 299.836 175.505 300.042 175.293 300.299C175.084 300.555 174.918 300.847 174.797 301.175C174.675 301.504 174.615 301.852 174.615 302.22ZM182.038 295.412V296.236L179.196 297.877V297.052L182.038 295.412ZM180.024 295.057L180.867 294.571V300.606C180.867 300.881 180.901 301.067 180.97 301.165C181.042 301.258 181.132 301.296 181.241 301.28C181.353 301.259 181.471 301.213 181.595 301.142C181.688 301.088 181.764 301.039 181.823 300.993C181.883 300.945 181.93 300.907 181.966 300.878L182.138 301.653C182.08 301.711 182.001 301.781 181.898 301.865C181.796 301.952 181.666 302.041 181.509 302.131C181.271 302.269 181.038 302.344 180.81 302.358C180.583 302.37 180.395 302.299 180.245 302.144C180.098 301.987 180.024 301.724 180.024 301.356V295.057ZM185.545 299.85C185.017 300.156 184.561 300.284 184.178 300.236C183.797 300.184 183.503 299.974 183.296 299.607C183.091 299.236 182.989 298.726 182.989 298.078C182.989 297.429 183.091 296.799 183.296 296.186C183.503 295.569 183.791 295.015 184.16 294.524C184.531 294.03 184.964 293.639 185.459 293.354C185.745 293.189 186.027 293.081 186.305 293.03C186.584 292.979 186.837 293.011 187.066 293.127C187.294 293.24 187.476 293.459 187.612 293.784C187.748 294.11 187.816 294.568 187.816 295.159V295.571L183.589 298.012V297.171L186.959 295.225C186.959 294.868 186.897 294.585 186.773 294.376C186.652 294.166 186.478 294.045 186.252 294.013C186.028 293.98 185.764 294.052 185.459 294.228C185.124 294.421 184.833 294.685 184.588 295.019C184.346 295.349 184.159 295.704 184.028 296.085C183.897 296.465 183.831 296.83 183.831 297.179V297.74C183.831 298.218 183.903 298.582 184.046 298.832C184.191 299.078 184.392 299.214 184.649 299.238C184.906 299.26 185.205 299.173 185.545 298.977C185.766 298.849 185.966 298.698 186.145 298.523C186.326 298.344 186.482 298.145 186.613 297.923C186.743 297.699 186.845 297.457 186.916 297.196L187.73 296.99C187.644 297.358 187.5 297.721 187.298 298.08C187.096 298.436 186.846 298.767 186.548 299.073C186.251 299.377 185.916 299.636 185.545 299.85ZM189.097 297.668V291.336L189.911 290.866V291.822L189.968 291.789C190.068 291.418 190.249 291.06 190.511 290.713C190.773 290.367 191.068 290.099 191.396 289.909C191.458 289.874 191.536 289.83 191.628 289.78C191.721 289.729 191.791 289.692 191.839 289.67V290.66C191.81 290.668 191.745 290.693 191.643 290.736C191.543 290.774 191.437 290.826 191.325 290.891C191.058 291.044 190.82 291.246 190.611 291.497C190.404 291.742 190.24 292.013 190.118 292.309C189.999 292.6 189.94 292.888 189.94 293.174V297.181L189.097 297.668Z" fill="#7896FF"/>
<path d="M341.391 128.31C341.391 129.756 342.426 131.515 343.702 132.238C344.978 132.961 346.013 132.375 346.013 130.929C346.013 129.483 344.978 127.724 343.702 127.001C342.426 126.277 341.391 126.863 341.391 128.31Z" fill="#455A64"/>
<path d="M310.417 137.625C308.646 137.625 306.69 137.048 304.671 135.903L297.339 131.749C297.099 131.613 297.014 131.308 297.15 131.067C297.286 130.826 297.593 130.743 297.831 130.879L305.163 135.033C308.325 136.825 311.263 137.113 313.435 135.847C315.56 134.608 316.731 131.996 316.731 128.492C316.731 124.617 318.078 121.697 320.524 120.272C323.017 118.819 326.308 119.107 329.791 121.08L341.64 127.793C341.88 127.929 341.965 128.234 341.828 128.475C341.691 128.715 341.384 128.798 341.147 128.664L329.298 121.951C326.136 120.16 323.199 119.871 321.027 121.137C318.901 122.376 317.73 124.988 317.73 128.493C317.73 132.368 316.383 135.287 313.937 136.712C312.891 137.321 311.702 137.625 310.417 137.625Z" fill="#455A64"/>
<path d="M294.313 129.506C294.313 130.676 295.15 132.098 296.182 132.683C297.214 133.268 298.051 132.794 298.051 131.624C298.051 130.455 297.214 129.032 296.182 128.448C295.15 127.863 294.313 128.337 294.313 129.506Z" fill="#455A64"/>
<path d="M341.391 215.717C341.391 217.163 342.426 218.922 343.702 219.645C344.978 220.368 346.013 219.782 346.013 218.336C346.013 216.89 344.978 215.131 343.702 214.408C342.426 213.684 341.391 214.271 341.391 215.717Z" fill="#455A64"/>
<path d="M341.48 216.81C341.396 216.81 341.311 216.789 341.234 216.745L329.385 210.032C322.455 206.105 316.819 196.521 316.819 188.666C316.819 181.133 311.409 171.938 304.759 168.17L297.338 163.965C297.098 163.829 297.013 163.524 297.149 163.283C297.285 163.042 297.592 162.958 297.83 163.094L305.251 167.299C312.181 171.226 317.818 180.81 317.818 188.665C317.818 196.198 323.227 205.392 329.877 209.161L341.726 215.874C341.966 216.01 342.051 216.315 341.914 216.556C341.823 216.719 341.654 216.81 341.48 216.81Z" fill="#455A64"/>
<path d="M294.313 161.541C294.313 162.71 295.15 164.133 296.182 164.718C297.214 165.303 298.051 164.829 298.051 163.659C298.051 162.489 297.214 161.067 296.182 160.482C295.15 159.897 294.313 160.371 294.313 161.541Z" fill="#455A64"/>
<path d="M412.594 118.884L363.615 91.1428C362.212 90.3328 360.951 90.3938 360.057 91.1358L355.825 94.0618L358.711 97.6298V149.255C358.711 152.866 360.906 157.061 363.615 158.625L411.378 185.664L411.603 189.509L416.062 186.453C416.949 185.782 417.498 184.464 417.498 182.659V128.253C417.497 124.643 415.302 120.448 412.594 118.884Z" fill="#7896FF"/>
<path opacity="0.3" d="M412.594 118.884L363.615 91.1428C362.212 90.3328 360.951 90.3938 360.057 91.1358L355.825 94.0618L358.711 97.6298V149.255C358.711 152.866 360.906 157.061 363.615 158.625L411.378 185.664L411.603 189.509L416.062 186.453C416.949 185.782 417.498 184.464 417.498 182.659V128.253C417.497 124.643 415.302 120.448 412.594 118.884Z" fill="black"/>
<path d="M408.43 189.233L359.451 161.492C356.743 159.928 354.547 155.733 354.547 152.122V97.7156C354.547 94.1046 356.743 92.4446 359.451 94.0086L408.43 121.75C411.138 123.314 413.334 127.509 413.334 131.12V185.526C413.334 189.137 411.138 190.797 408.43 189.233Z" fill="#7896FF"/>
<path d="M398.138 142.153C397.917 142.153 397.715 142.006 397.655 141.782C396.633 137.972 394.974 134.196 392.859 130.862C392.711 130.629 392.78 130.32 393.013 130.172C393.244 130.024 393.554 130.092 393.702 130.326C395.871 133.745 397.572 137.617 398.62 141.523C398.692 141.79 398.534 142.063 398.268 142.135C398.224 142.147 398.181 142.153 398.138 142.153Z" fill="white"/>
<path d="M399.263 152.316C399.251 152.316 399.241 152.315 399.229 152.315C398.954 152.297 398.746 152.059 398.763 151.783C398.798 151.245 398.817 150.69 398.817 150.119C398.817 148.475 398.666 146.758 398.366 145.014C398.32 144.742 398.503 144.483 398.774 144.437C399.049 144.392 399.305 144.573 399.352 144.845C399.661 146.644 399.817 148.419 399.817 150.118C399.817 150.711 399.799 151.287 399.761 151.847C399.743 152.114 399.523 152.316 399.263 152.316Z" fill="white"/>
<path d="M368.675 135.722C368.419 135.722 368.2 135.526 368.178 135.265C368.102 134.398 368.064 133.533 368.064 132.694C368.064 127.843 369.372 123.836 371.746 121.41C371.938 121.213 372.255 121.209 372.453 121.402C372.65 121.595 372.654 121.912 372.461 122.109C370.271 124.347 369.065 128.106 369.065 132.693C369.065 133.503 369.102 134.338 369.175 135.177C369.199 135.452 368.995 135.695 368.721 135.719C368.704 135.722 368.69 135.722 368.675 135.722Z" fill="white"/>
<path d="M390.789 127.633C390.644 127.633 390.501 127.57 390.402 127.449C388.303 124.882 386.047 122.904 383.694 121.57C380.372 119.688 377.255 119.326 374.683 120.521C374.435 120.638 374.135 120.53 374.019 120.278C373.903 120.028 374.011 119.73 374.261 119.613C377.139 118.277 380.57 118.651 384.186 120.699C386.647 122.094 388.999 124.152 391.175 126.815C391.35 127.029 391.318 127.344 391.105 127.519C391.013 127.596 390.9 127.633 390.789 127.633Z" fill="white"/>
<path d="M372.122 136.105C371.855 136.105 371.634 135.895 371.622 135.626C371.609 135.315 371.603 135.007 371.603 134.7C371.603 131.148 372.473 128.249 374.119 126.318C374.3 126.107 374.615 126.082 374.824 126.262C375.034 126.441 375.059 126.757 374.881 126.967C373.391 128.715 372.604 131.389 372.604 134.7C372.604 134.993 372.61 135.288 372.623 135.584C372.634 135.86 372.42 136.093 372.144 136.104C372.136 136.105 372.129 136.105 372.122 136.105Z" fill="white"/>
<path d="M376.045 125.807C375.877 125.807 375.713 125.723 375.619 125.569C375.474 125.334 375.548 125.026 375.783 124.881C377.035 124.112 378.469 123.8 380.028 123.956C380.303 123.983 380.504 124.228 380.477 124.503C380.45 124.778 380.202 124.974 379.93 124.951C378.582 124.817 377.367 125.081 376.306 125.733C376.225 125.783 376.135 125.807 376.045 125.807Z" fill="white"/>
<path d="M398.138 158.749C397.941 158.749 397.753 158.631 397.674 158.436L397.088 156.986C395.898 154.037 395.272 150.982 395.277 148.15C395.277 139.67 390.081 129.856 383.695 126.237C383.455 126.101 383.37 125.796 383.507 125.555C383.643 125.314 383.95 125.23 384.188 125.367C390.855 129.144 396.278 139.348 396.278 148.114C396.273 150.857 396.875 153.781 398.017 156.612L398.603 158.062C398.707 158.318 398.582 158.61 398.327 158.713C398.264 158.738 398.2 158.749 398.138 158.749Z" fill="white"/>
<path d="M375.181 153.002C374.977 153.002 374.785 152.877 374.711 152.674C372.189 145.789 371.609 138.144 371.604 138.067C371.585 137.792 371.792 137.552 372.067 137.532C372.307 137.511 372.582 137.718 372.602 137.994C372.607 138.069 373.178 145.579 375.651 152.329C375.746 152.588 375.613 152.875 375.353 152.971C375.296 152.993 375.238 153.002 375.181 153.002Z" fill="white"/>
<path d="M395.195 162.122C394.992 162.122 394.801 161.998 394.726 161.796L393.393 158.204C391.986 154.412 391.242 150.611 391.242 147.211V143.279C391.242 138.614 387.891 132.92 383.773 130.587C381.849 129.497 380.074 129.315 378.772 130.075C377.497 130.817 376.796 132.398 376.796 134.528V137.999C376.796 143.092 377.952 148.795 380.141 154.492L381.792 158.795C381.891 159.053 381.762 159.342 381.504 159.441C381.248 159.539 380.957 159.411 380.858 159.153L379.207 154.85C376.976 149.04 375.796 143.213 375.796 137.998V134.527C375.796 132.027 376.674 130.139 378.268 129.21C379.893 128.263 382.023 128.445 384.265 129.716C388.663 132.208 392.242 138.292 392.242 143.279V147.211C392.242 150.493 392.965 154.174 394.331 157.856L395.664 161.448C395.76 161.707 395.628 161.994 395.369 162.091C395.311 162.112 395.253 162.122 395.195 162.122Z" fill="white"/>
<path d="M390.789 163.554C390.573 163.554 390.374 163.413 390.31 163.196L389.613 160.844C388.289 156.377 387.618 152.077 387.618 148.065V141.982C387.618 139.475 385.816 136.414 383.602 135.16C382.612 134.599 381.707 134.497 381.06 134.876C380.428 135.245 380.08 136.05 380.08 137.144C380.08 143.896 382.137 151.688 385.871 159.083L387.276 161.866C387.4 162.113 387.301 162.413 387.055 162.538C386.809 162.661 386.507 162.563 386.383 162.317L384.978 159.534C381.174 152.001 379.08 144.05 379.08 137.143C379.08 135.678 379.604 134.566 380.558 134.011C381.525 133.447 382.784 133.546 384.095 134.289C386.589 135.702 388.618 139.153 388.618 141.981V148.064C388.618 151.981 389.275 156.184 390.572 160.559L391.269 162.911C391.347 163.176 391.197 163.454 390.932 163.533C390.884 163.548 390.836 163.554 390.789 163.554Z" fill="white"/>
<path d="M385.183 153.002C384.953 153.002 384.745 152.842 384.695 152.607L384.235 150.468C383.795 148.416 383.571 146.311 383.571 144.213V138.577C383.571 138.301 383.795 138.077 384.071 138.077C384.347 138.077 384.571 138.301 384.571 138.577V144.213C384.571 146.241 384.787 148.276 385.214 150.258L385.674 152.397C385.732 152.667 385.56 152.933 385.29 152.991C385.253 152.999 385.218 153.002 385.183 153.002Z" fill="white"/>
<path d="M369.76 142.154C369.506 142.154 369.289 141.962 369.264 141.703L368.973 138.778C368.946 138.504 369.146 138.258 369.42 138.231C369.718 138.213 369.94 138.404 369.967 138.679L370.258 141.604C370.285 141.878 370.085 142.123 369.811 142.151C369.793 142.153 369.776 142.154 369.76 142.154Z" fill="white"/>
<path d="M412.594 211.536L363.615 183.795C362.212 182.985 360.951 183.046 360.057 183.788L355.825 186.714L358.711 190.282V241.908C358.711 245.519 360.906 249.714 363.615 251.278L411.378 278.317L411.603 282.162L416.062 279.106C416.949 278.435 417.498 277.117 417.498 275.312V220.906C417.497 217.294 415.302 213.099 412.594 211.536Z" fill="#7896FF"/>
<path opacity="0.3" d="M412.594 211.536L363.615 183.795C362.212 182.985 360.951 183.046 360.057 183.788L355.825 186.714L358.711 190.282V241.908C358.711 245.519 360.906 249.714 363.615 251.278L411.378 278.317L411.603 282.162L416.062 279.106C416.949 278.435 417.498 277.117 417.498 275.312V220.906C417.497 217.294 415.302 213.099 412.594 211.536Z" fill="black"/>
<path d="M408.43 281.884L359.451 254.143C356.743 252.58 354.547 248.385 354.547 244.773V190.367C354.547 186.756 356.743 185.096 359.451 186.66L408.43 214.401C411.138 215.965 413.334 220.16 413.334 223.771V278.177C413.334 281.788 411.138 283.447 408.43 281.884Z" fill="#7896FF"/>
<path d="M365.449 205.548C365.173 205.548 364.949 205.324 364.949 205.048V201.675C364.949 200.993 365.304 200.38 365.898 200.033C366.505 199.679 367.234 199.674 367.845 200.021L371.38 202.024C371.62 202.16 371.705 202.465 371.568 202.706C371.431 202.947 371.124 203.029 370.887 202.895L367.352 200.892C367.052 200.723 366.699 200.725 366.401 200.898C366.113 201.066 365.948 201.349 365.948 201.676V205.049C365.949 205.324 365.726 205.548 365.449 205.548Z" fill="white"/>
<path d="M371.135 251.925C371.051 251.925 370.966 251.904 370.889 251.86L367.586 249.988C365.959 249.067 364.949 247.348 364.949 245.502V242.393C364.949 242.117 365.173 241.893 365.449 241.893C365.725 241.893 365.949 242.117 365.949 242.393V245.502C365.949 246.988 366.764 248.374 368.078 249.118L371.381 250.99C371.621 251.126 371.706 251.431 371.569 251.672C371.478 251.833 371.309 251.925 371.135 251.925Z" fill="white"/>
<path d="M400.997 268.631C400.667 268.631 400.336 268.546 400.034 268.374L396.499 266.371C396.259 266.235 396.174 265.93 396.31 265.689C396.446 265.448 396.752 265.366 396.991 265.5L400.526 267.503C400.827 267.672 401.182 267.67 401.477 267.497C401.765 267.33 401.93 267.046 401.93 266.72V263.347C401.93 263.071 402.154 262.847 402.43 262.847C402.706 262.847 402.93 263.071 402.93 263.347V266.72C402.93 267.401 402.576 268.015 401.981 268.361C401.674 268.541 401.336 268.631 400.997 268.631Z" fill="white"/>
<path d="M402.431 226.502C402.155 226.502 401.931 226.278 401.931 226.002V222.893C401.931 221.407 401.116 220.021 399.802 219.277L396.499 217.405C396.259 217.269 396.174 216.964 396.31 216.723C396.446 216.483 396.752 216.398 396.991 216.534L400.294 218.406C401.921 219.327 402.931 221.046 402.931 222.892V226.001C402.931 226.279 402.707 226.502 402.431 226.502Z" fill="white"/>
<path d="M369.884 222.37C369.959 228.281 370.915 233.974 372.297 239.174C376.105 253.506 391.09 262.321 395.209 252.611C396.85 248.743 397.999 243.804 397.999 237.558C397.999 228.758 391.704 218.058 383.938 213.658C376.022 209.173 369.769 213.336 369.884 222.37Z" fill="white"/>
<path d="M383.439 230.38V239.802L379.346 236.738L383.439 230.38Z" fill="#E0E0E0"/>
<path d="M375.826 224.754C375.826 225.598 376.43 226.624 377.175 227.047C377.92 227.469 378.524 227.127 378.524 226.283C378.524 225.439 377.92 224.413 377.175 223.99C376.43 223.568 375.826 223.91 375.826 224.754Z" fill="#E0E0E0"/>
<path d="M388.354 231.928C388.354 232.772 388.958 233.798 389.703 234.221C390.448 234.643 391.052 234.301 391.052 233.457C391.052 232.613 390.448 231.587 389.703 231.164C388.957 230.742 388.354 231.084 388.354 231.928Z" fill="#E0E0E0"/>
<path d="M382.09 244.413L386.661 243.638C386.661 243.638 385.687 248.522 382.09 244.413Z" fill="#E0E0E0"/>
<path d="M308.378 253.204C308.378 253.204 315.667 252.713 319.802 262.844C322.372 269.142 325.502 278.874 327.502 285.338C328.745 289.354 327.462 293.721 324.242 296.423L311.532 307.087L306.984 298.817C306.984 298.817 311.887 292.275 315.667 288.893L306.984 262.843L308.378 253.204Z" fill="#FFA8A7"/>
<path d="M311.739 284.138C311.739 284.138 323.317 285.669 326.211 276.737C326.211 276.737 321.249 263.67 318.975 259.329C316.701 254.987 312.047 251.834 308.378 253.204C304.709 254.574 311.739 284.138 311.739 284.138Z" fill="#7888A8"/>
<path d="M304.013 401.4C304.013 401.4 298.508 396.686 296.372 396.465C294.236 396.244 290.532 399.906 293.66 406.261C294.53 408.029 298.066 409.944 300.276 413.332C302.486 416.72 304.474 419.267 307.863 418.804C311.251 418.341 311.693 416.426 311.472 414.216C311.251 412.006 310.257 408.213 310.257 408.213L304.013 401.4Z" fill="#37474F"/>
<path d="M308.043 417.789C304.551 418.266 302.501 415.641 300.223 412.149C297.945 408.657 294.301 406.683 293.404 404.86C293.009 404.059 292.723 403.3 292.524 402.584C292.651 403.682 292.994 404.906 293.66 406.26C294.53 408.028 298.066 409.943 300.276 413.331C302.486 416.719 304.474 419.266 307.863 418.803C310.458 418.448 311.319 417.239 311.483 415.701C311.034 416.738 310.049 417.515 308.043 417.789Z" fill="#263238"/>
<path d="M301.077 407.457C300.992 407.457 300.906 407.436 300.826 407.394C300.566 407.255 300.468 406.932 300.606 406.672C300.677 406.538 302.395 403.383 305.782 402.615C306.075 402.548 306.356 402.73 306.422 403.018C306.487 403.306 306.307 403.592 306.019 403.657C303.118 404.316 301.565 407.147 301.549 407.176C301.453 407.354 301.269 407.457 301.077 407.457Z" fill="#EBEBEB"/>
<path d="M299.022 405.563C298.937 405.563 298.851 405.543 298.771 405.5C298.511 405.361 298.413 405.038 298.551 404.778C298.622 404.644 300.339 401.489 303.727 400.721C304.019 400.654 304.301 400.836 304.367 401.124C304.432 401.412 304.252 401.698 303.964 401.763C301.062 402.422 299.51 405.253 299.494 405.282C299.397 405.46 299.213 405.563 299.022 405.563Z" fill="#EBEBEB"/>
<path d="M296.673 403.669C296.588 403.669 296.502 403.648 296.422 403.606C296.162 403.467 296.064 403.144 296.202 402.884C296.273 402.75 297.99 399.596 301.377 398.827C301.668 398.759 301.951 398.942 302.017 399.23C302.083 399.518 301.902 399.804 301.614 399.869C298.713 400.528 297.161 403.359 297.145 403.387C297.049 403.566 296.864 403.669 296.673 403.669Z" fill="#EBEBEB"/>
<path d="M274.732 416.851C274.732 416.851 267.358 414.459 265.158 415.119C262.958 415.779 260.806 420.918 266.507 425.907C268.093 427.295 272.372 427.733 275.946 430.17C279.521 432.608 282.531 434.305 285.687 432.455C288.843 430.605 288.585 428.477 288.023 426.169C287.308 423.229 286.733 421.093 286.733 421.093L274.732 416.851Z" fill="#37474F"/>
<path d="M285.449 431.379C282.197 433.286 279.093 431.537 275.409 429.024C271.724 426.511 267.314 426.06 265.679 424.63C264.96 424.001 264.366 423.37 263.875 422.745C264.452 423.777 265.293 424.845 266.508 425.908C268.094 427.296 272.373 427.734 275.947 430.171C279.522 432.609 282.532 434.306 285.688 432.456C288.105 431.039 288.458 429.491 287.988 427.904C287.971 429.11 287.318 430.283 285.449 431.379Z" fill="#263238"/>
<path d="M272.973 423.658C272.955 423.658 272.938 423.657 272.92 423.655C272.627 423.627 272.412 423.366 272.44 423.073C272.456 422.912 272.852 419.108 275.868 416.967C276.107 416.796 276.44 416.852 276.613 417.093C276.784 417.334 276.727 417.667 276.487 417.838C273.877 419.692 273.508 423.141 273.505 423.176C273.477 423.452 273.244 423.658 272.973 423.658Z" fill="#EBEBEB"/>
<path d="M276.018 424.655C276 424.655 275.983 424.654 275.965 424.652C275.671 424.624 275.456 424.363 275.485 424.07C275.501 423.909 275.898 420.105 278.913 417.964C279.152 417.793 279.486 417.849 279.658 418.09C279.829 418.331 279.772 418.664 279.532 418.835C276.923 420.689 276.552 424.138 276.549 424.173C276.522 424.448 276.289 424.655 276.018 424.655Z" fill="#EBEBEB"/>
<path d="M270.164 422.633C270.146 422.633 270.129 422.632 270.111 422.63C269.818 422.602 269.603 422.341 269.631 422.048C269.647 421.887 270.043 418.083 273.059 415.942C273.298 415.771 273.632 415.827 273.804 416.068C273.975 416.309 273.918 416.642 273.678 416.813C271.068 418.667 270.699 422.116 270.696 422.151C270.668 422.427 270.435 422.633 270.164 422.633Z" fill="#EBEBEB"/>
<path d="M310.601 402.805C311.261 395.503 312.692 384.063 313.287 378.714C314.35 369.158 313.376 361.869 312.711 358.403C312.406 356.816 312.321 355.211 312.481 353.603C313.927 339.061 314.876 315.494 314.074 310.314L293.661 314.633C293.661 314.633 296.16 347.699 297.256 358.698C298.359 369.77 302.463 402.9 302.463 402.9C304.169 403.905 307.268 405.004 310.601 402.805Z" fill="#455A64"/>
<path d="M307.659 410.312C309.427 410.036 310.255 408.213 310.255 408.213C310.255 407.062 310.389 405.141 310.6 402.805C307.267 405.004 304.169 403.905 302.461 402.9L303.184 409.042C304.014 409.981 305.892 410.589 307.659 410.312Z" fill="#FFA8A7"/>
<path d="M287.637 415.635C288.47 404.585 290.078 383.167 290.293 379.804C290.509 376.41 290.133 371.737 289.589 368.69C289.235 366.707 289.264 364.678 289.622 362.696L298.593 312.922L273.926 312.561L272.312 364.706C272.291 365.38 272.317 366.055 272.389 366.725L277.621 415.325C277.621 415.325 282.722 419.604 287.637 415.635Z" fill="#455A64"/>
<path d="M283.524 424.761C285.298 424.595 286.892 423.097 287.14 422.22C287.14 422.22 287.339 419.583 287.637 415.635C282.723 419.604 277.62 415.325 277.62 415.325L278.405 422.613C278.405 422.613 279.564 425.132 283.524 424.761Z" fill="#FFA8A7"/>
<path d="M285.323 256.518L279.504 258.507L273.243 288.117L273.546 314.373C273.546 314.373 278.017 317.936 295.48 317.936C305.283 317.936 311.664 314.244 314.072 310.314L312.502 294.452C312.502 294.452 314.072 278.822 314.072 271.095C314.072 263.369 314.417 257.034 308.377 253.204L303 253.646L285.323 256.518Z" fill="#00237C"/>
<path d="M279.004 231.073L276.09 236.84C275.91 237.196 276.088 237.629 276.467 237.755L279.925 238.907L279.004 231.073Z" fill="#F28F8F"/>
<path d="M283.04 221.399C283.04 221.399 278.621 223.78 278.621 237.442C278.621 244.955 279.137 249.742 283.04 249.448C286.944 249.153 298.176 247.68 298.176 247.68V221.399H283.04Z" fill="#FFA8A7"/>
<path d="M283.04 249.447C284.412 249.344 286.691 249.094 289.067 248.814V247.421C286.881 248.542 282.981 249.328 282.388 249.443C282.595 249.461 282.81 249.465 283.04 249.447Z" fill="#F28F8F"/>
<path d="M288.398 246.839V255.414H300.128V243.365L288.398 246.839Z" fill="#FFA8A7"/>
<path d="M288.398 252.148C288.398 252.148 292.615 253.646 296.003 253.057C299.391 252.468 300.128 250.405 300.128 250.405C300.128 250.405 301.233 250.321 303.001 253.646C303.001 253.646 300.93 257.784 296.151 258.065C289.89 258.433 285.323 256.518 285.323 256.518C285.323 256.518 286.953 251.722 288.398 252.148Z" fill="#7888A8"/>
<path d="M262.232 277.586L259.082 282.433C259.082 282.433 251.432 279.022 246.057 276.954C240.682 274.887 237.477 272.015 237.477 272.015C237.477 272.015 237.891 267.911 238.511 265.817C239.131 263.723 239.338 261.965 237.477 262.896C235.616 263.826 234.376 267.444 234.273 267.858C234.273 267.858 223.522 257.056 222.178 257.288C220.834 257.521 221.145 259.148 224.039 262.482C226.932 265.817 226.932 265.817 226.932 265.817C226.932 265.817 220.338 269.615 221.413 273.75C222.488 277.885 231.171 279.746 231.171 279.746C231.171 279.746 256.595 299.283 262.232 295.769C267.868 292.254 275.828 282.124 275.828 282.124L262.232 277.586Z" fill="#FFA8A7"/>
<path d="M281.812 257.753C281.812 257.753 286.505 261.612 283.447 269.59C280.388 277.568 272.582 287.207 272.582 287.207C272.582 287.207 264.396 284.663 261.239 278.051L271.558 261.904C273.049 259.571 275.551 258.088 278.314 257.906C279.287 257.843 280.445 257.788 281.812 257.753Z" fill="#7888A8"/>
<path d="M281.346 213.356C281.346 213.356 276.71 212.74 275.527 215.934C274.79 217.923 277.148 219.47 277.148 219.47C277.148 219.47 274.157 222.285 278.621 223.153C278.621 223.153 278.253 226.983 282.23 226.467C282.23 226.467 281.714 229.504 285.618 230.564C285.618 230.564 283.645 235.822 287.357 235.895H290.832L289.431 239.946C289.431 239.946 292.026 246.207 300.129 246.207C300.129 246.207 302.192 241.935 303.149 240.683C304.107 239.431 309.115 233.023 309.115 227.941C309.115 222.859 307.16 219.848 304.455 219.18C304.455 219.18 303.297 216.377 300.571 214.535C297.846 212.694 292.101 211.051 288.86 213.309C288.86 213.309 285.987 209.542 283.999 209.542C282.009 209.541 281.346 211.588 281.346 213.356Z" fill="#263238"/>
<path d="M287.357 235.895C287.357 235.895 287.018 230.564 291.511 230.564C296.004 230.564 294.938 239.946 289.431 239.946L287.357 235.895Z" fill="#FFA8A7"/>
</svg>
