<svg width="413" height="448" viewBox="0 0 413 448" fill="none" xmlns="http://www.w3.org/2000/svg">
<path d="M60.7363 415.973C141.309 458.437 271.943 458.439 352.515 415.974C433.088 373.508 433.088 304.66 352.515 262.195C271.942 219.73 141.308 219.73 60.7353 262.194C-19.8377 304.659 -19.8377 373.509 60.7363 415.973Z" fill="#F5F5F5"/>
<path d="M26.1928 362.849L29.9318 364.984C31.1288 365.672 33.0688 365.67 34.2648 364.979L207.076 265.213C208.272 264.523 208.27 263.406 207.073 262.719L203.36 260.601C202.162 259.914 200.222 259.916 199.026 260.607L26.1898 360.354C24.9938 361.044 24.9958 362.161 26.1928 362.849Z" fill="#E0E0E0"/>
<path d="M312.97 390.325C292.375 401.618 258.984 401.618 238.388 390.325C217.792 379.035 217.792 360.726 238.388 349.433C258.983 338.143 292.374 338.143 312.97 349.433C333.566 360.726 333.566 379.035 312.97 390.325Z" fill="#E0E0E0"/>
<path d="M365.38 313.58C349.491 322.292 323.73 322.292 307.841 313.58C291.952 304.87 291.952 290.745 307.841 282.032C323.73 273.322 349.491 273.322 365.38 282.032C381.27 290.745 381.27 304.87 365.38 313.58Z" fill="#E0E0E0"/>
<path d="M356.509 275.393C356.448 270.284 360.015 259.659 365.237 252.961C370.458 246.264 378.735 241.314 384.68 243.268C390.217 245.088 389.707 252.329 383.074 257.204C376.441 262.078 366.457 268.221 363.614 276.543L357.563 286.785L356.509 275.393Z" fill="#27DEBF"/>
<path opacity="0.1" d="M356.509 275.393C356.448 270.284 360.015 259.659 365.237 252.961C370.458 246.264 378.735 241.314 384.68 243.268C390.217 245.088 389.707 252.329 383.074 257.204C376.441 262.078 366.457 268.221 363.614 276.543L357.563 286.785L356.509 275.393Z" fill="black"/>
<path d="M356.216 282.388C356.379 282.373 356.518 282.251 356.549 282.084C359.76 264.604 373.697 250.26 382.103 247.027C382.295 246.953 382.391 246.737 382.317 246.545C382.244 246.354 382.032 246.253 381.835 246.331C373.269 249.626 359.074 264.205 355.815 281.95C355.778 282.152 355.912 282.347 356.114 282.384C356.149 282.39 356.183 282.392 356.216 282.388Z" fill="white"/>
<path d="M358.952 293.52C359.738 290.639 363.189 285.857 368.815 281.875C375.039 277.469 382.957 275.383 384.747 271.99C386.898 267.915 383.439 264.13 377.002 265.007C370.565 265.884 359.337 274.816 357.684 288.08L358.952 293.52Z" fill="#27DEBF"/>
<path d="M357.667 290.521C357.809 290.508 357.936 290.414 357.986 290.27C363.154 275.266 374.49 269.886 379.761 269.137C379.965 269.108 380.107 268.919 380.078 268.715C380.049 268.51 379.868 268.368 379.656 268.398C373.827 269.226 362.556 274.713 357.28 290.028C357.213 290.223 357.317 290.436 357.512 290.503C357.563 290.52 357.616 290.526 357.667 290.521Z" fill="white"/>
<path d="M30.8515 360.331L30.0925 359.893C28.8785 359.192 27.8945 357.488 27.8945 356.086V99.832C27.8945 98.43 28.8785 96.726 30.0925 96.025L195.21 0.702996C196.424 0.0019961 198.392 0.0019961 199.606 0.702996L200.365 1.141C201.579 1.842 202.563 3.546 202.563 4.948V261.202C202.563 262.604 201.579 264.308 200.365 265.009L35.2475 360.331C34.0335 361.032 32.0645 361.032 30.8515 360.331Z" fill="#6768BA"/>
<path opacity="0.4" d="M202.541 4.59523C202.391 3.45523 201.47 3.04123 200.365 3.67423L35.243 99.0042C34.633 99.3492 34.092 99.9592 33.689 100.639L28.543 97.6692C28.934 96.9782 29.487 96.3802 30.097 96.0232L195.208 0.704234C196.428 0.00223434 198.397 0.00223434 199.605 0.704234L200.365 1.14223C201.471 1.78723 202.403 3.27223 202.541 4.59523Z" fill="white"/>
<path opacity="0.1" d="M34.8744 360.504C33.6654 361.022 31.9504 360.964 30.8564 360.331L30.0854 359.893C28.8764 359.191 27.8984 357.487 27.8984 356.083V99.8329C27.8984 99.1309 28.1404 98.3479 28.5434 97.6689L33.6894 100.639C33.2984 101.33 33.0444 102.112 33.0444 102.803V359.064C33.0444 360.32 33.8384 360.907 34.8744 360.504Z" fill="black"/>
<path d="M52.5195 267.653L51.7605 267.215C50.5465 266.514 49.5625 264.809 49.5625 263.408V217.349C49.5625 215.947 50.5465 214.243 51.7605 213.542L201.667 126.913C202.882 126.212 204.849 126.212 206.063 126.913L206.822 127.351C208.036 128.052 209.02 129.756 209.02 131.158V177.217C209.02 178.619 208.036 180.323 206.822 181.024L56.9155 267.653C55.7015 268.354 53.7335 268.354 52.5195 267.653Z" fill="#EBEBEB"/>
<path d="M209 130.805C208.85 129.665 207.93 129.251 206.824 129.884L56.9119 216.522C56.3019 216.867 55.7609 217.478 55.3579 218.157L50.2119 215.187C50.6039 214.496 51.1559 213.898 51.7659 213.541L201.667 126.914C202.887 126.212 204.856 126.212 206.064 126.914L206.824 127.351C207.929 127.996 208.862 129.481 209 130.805Z" fill="#FAFAFA"/>
<path d="M56.5424 267.826C55.3334 268.344 53.6184 268.286 52.5244 267.653L51.7534 267.216C50.5444 266.514 49.5664 264.81 49.5664 263.406V217.351C49.5664 216.649 49.8084 215.866 50.2114 215.187L55.3574 218.157C54.9664 218.848 54.7124 219.63 54.7124 220.321V266.387C54.7124 267.642 55.5064 268.229 56.5424 267.826Z" fill="#E0E0E0"/>
<path d="M78.1126 213.43C86.6626 208.493 93.5936 212.334 93.5926 222.009C93.5916 231.683 86.6526 243.448 78.0946 248.285C69.5356 253.123 62.5976 249.278 62.6016 239.703C62.6056 230.127 69.5626 218.366 78.1126 213.43Z" fill="#6768BA"/>
<path d="M52.5195 330.071L51.7605 329.633C50.5465 328.932 49.5625 327.227 49.5625 325.826V279.767C49.5625 278.365 50.5465 276.661 51.7605 275.96L201.667 189.331C202.882 188.63 204.849 188.63 206.063 189.331L206.822 189.769C208.036 190.47 209.02 192.174 209.02 193.576V239.635C209.02 241.037 208.036 242.741 206.822 243.442L56.9155 330.071C55.7015 330.772 53.7335 330.772 52.5195 330.071Z" fill="#EBEBEB"/>
<path d="M209 193.224C208.85 192.084 207.93 191.67 206.824 192.303L56.9119 278.941C56.3019 279.286 55.7609 279.897 55.3579 280.576L50.2119 277.606C50.6039 276.915 51.1559 276.317 51.7659 275.96L201.667 189.333C202.887 188.631 204.856 188.631 206.064 189.333L206.824 189.77C207.929 190.415 208.862 191.9 209 193.224Z" fill="#FAFAFA"/>
<path d="M56.5424 330.244C55.3334 330.762 53.6184 330.705 52.5244 330.072L51.7534 329.633C50.5444 328.931 49.5664 327.227 49.5664 325.823V279.768C49.5664 279.066 49.8084 278.283 50.2114 277.604L55.3574 280.574C54.9664 281.265 54.7124 282.047 54.7124 282.738V328.804C54.7124 330.06 55.5064 330.647 56.5424 330.244Z" fill="#E0E0E0"/>
<path d="M78.1126 275.848C86.6626 270.912 93.5936 274.752 93.5926 284.427C93.5916 294.101 86.6526 305.866 78.0946 310.703C69.5356 315.541 62.5976 311.696 62.6016 302.121C62.6056 292.545 69.5626 280.784 78.1126 275.848Z" fill="#6768BA"/>
<path d="M52.5195 163.268L51.7605 162.83C50.5465 162.129 49.5625 160.424 49.5625 159.023V112.964C49.5625 111.562 50.5465 109.858 51.7605 109.157L201.667 22.5282C202.882 21.8272 204.849 21.8272 206.063 22.5282L206.822 22.9662C208.036 23.6672 209.02 25.3712 209.02 26.7732V72.8322C209.02 74.2342 208.036 75.9382 206.822 76.6392L56.9155 163.268C55.7015 163.969 53.7335 163.969 52.5195 163.268Z" fill="#EBEBEB"/>
<path d="M209 26.4204C208.85 25.2804 207.93 24.8664 206.824 25.4994L56.9119 112.137C56.3019 112.482 55.7609 113.092 55.3579 113.772L50.2119 110.802C50.6039 110.111 51.1559 109.513 51.7659 109.156L201.667 22.5294C202.887 21.8274 204.856 21.8274 206.064 22.5294L206.824 22.9674C207.929 23.6114 208.862 25.0964 209 26.4204Z" fill="#FAFAFA"/>
<path d="M56.5424 163.441C55.3334 163.959 53.6184 163.902 52.5244 163.268L51.7534 162.831C50.5444 162.129 49.5664 160.425 49.5664 159.021V112.966C49.5664 112.264 49.8084 111.481 50.2114 110.802L55.3574 113.772C54.9664 114.463 54.7124 115.245 54.7124 115.936V162.002C54.7124 163.257 55.5064 163.844 56.5424 163.441Z" fill="#E0E0E0"/>
<path d="M78.1126 109.045C86.6626 104.109 93.5936 107.949 93.5926 117.624C93.5916 127.298 86.6526 139.063 78.0946 143.9C69.5356 148.738 62.5976 144.893 62.6016 135.318C62.6056 125.742 69.5626 113.981 78.1126 109.045Z" fill="#6768BA"/>
<path d="M63.0556 221.746L62.2966 221.308C61.0826 220.607 60.0986 218.902 60.0986 217.501V171.442C60.0986 170.04 61.0826 168.336 62.2966 167.635L212.204 81.0062C213.418 80.3052 215.386 80.3052 216.6 81.0062L217.359 81.4442C218.573 82.1452 219.557 83.8502 219.557 85.2512V131.31C219.557 132.712 218.573 134.416 217.359 135.117L67.4516 221.746C66.2376 222.447 64.2696 222.447 63.0556 221.746Z" fill="#37474F"/>
<path d="M219.536 84.8985C219.386 83.7585 218.465 83.3445 217.36 83.9775L67.448 170.615C66.838 170.96 66.297 171.571 65.894 172.25L60.748 169.28C61.139 168.589 61.692 167.991 62.302 167.634L212.203 81.0075C213.423 80.3055 215.392 80.3055 216.6 81.0075L217.36 81.4455C218.465 82.0895 219.398 83.5745 219.536 84.8985Z" fill="#455A64"/>
<path d="M67.0795 221.919C65.8705 222.437 64.1555 222.379 63.0625 221.746L62.2915 221.309C61.0825 220.607 60.1045 218.903 60.1045 217.499V171.444C60.1045 170.742 60.3465 169.959 60.7495 169.28L65.8955 172.25C65.5045 172.941 65.2505 173.723 65.2505 174.414V220.48C65.2485 221.735 66.0435 222.322 67.0795 221.919Z" fill="#263238"/>
<path d="M88.6487 167.523C97.1987 162.586 104.13 166.427 104.129 176.102C104.128 185.776 97.1887 197.541 88.6307 202.378C80.0717 207.216 73.1337 203.371 73.1377 193.796C73.1427 184.22 80.0987 172.459 88.6487 167.523Z" fill="#F5F5F5"/>
<path d="M88.9542 195.351C88.2262 195.771 87.5332 195.807 87.0552 195.445L80.2552 190.301C79.3462 189.615 79.4602 187.718 80.5102 186.063C81.5582 184.404 83.1482 183.624 84.0522 184.312L88.7922 187.896L101.954 159.607C102.777 157.84 104.348 156.657 105.465 156.959C106.584 157.261 106.824 158.939 106.003 160.703L90.9782 192.998C90.5252 193.971 89.8172 194.815 89.0532 195.292C89.0212 195.312 88.9872 195.332 88.9542 195.351Z" fill="#6768BA"/>
<path d="M350.224 289.216V288.078C349.775 289.413 347.694 295.159 344.536 298.039C342.026 300.328 338.602 302.973 337.731 305.525C336.825 308.18 342.496 309.071 344.841 308.656C347.566 308.174 351.091 306.628 353.009 304.27C354.358 302.613 355.217 300.648 356.181 299.345C357.144 298.042 359.365 296.586 359.886 295.078C360.172 294.249 359.832 292.434 359.43 290.901C359.061 289.494 358.661 287.947 358.181 288.079C358.18 288.251 358.181 288.946 358.181 288.946C357.603 289.586 356.005 290.222 354.203 290.291C353.039 290.335 350.215 290.104 350.224 289.216Z" fill="#263238"/>
<path d="M342.265 300.053C343.043 299.358 343.827 298.679 344.537 298.031C346.743 296.019 348.424 292.607 349.39 290.278C349.941 288.949 350.225 287.53 350.225 286.091V281.556H358.182V288.938V288.939V289.136L358.142 289.156C357.759 290.81 354.108 295.208 352.033 298.076C350.643 299.999 348 302.445 344.842 302.866C341.849 303.266 340.32 302.322 342.265 300.053Z" fill="#FFA8A7"/>
<path d="M319.186 281.372V280.234C318.737 281.569 316.655 287.315 313.498 290.195C310.988 292.484 307.564 295.129 306.693 297.681C305.787 300.336 311.458 301.227 313.803 300.812C316.528 300.33 320.053 298.783 321.972 296.426C323.321 294.769 324.18 292.804 325.143 291.5C326.106 290.197 328.327 288.741 328.848 287.233C329.134 286.404 328.794 284.589 328.392 283.056C328.023 281.649 327.623 280.102 327.143 280.234C327.142 280.405 327.143 281.101 327.143 281.101C326.565 281.741 324.967 282.377 323.165 282.446C322.001 282.491 319.177 282.26 319.186 281.372Z" fill="#263238"/>
<path d="M311.226 292.209C312.005 291.514 312.788 290.835 313.498 290.187C315.704 288.175 317.385 284.763 318.351 282.434C318.902 281.105 319.186 279.686 319.186 278.247V273.712H327.143V281.094V281.095V281.292L327.103 281.312C326.72 282.966 323.069 287.364 320.994 290.232C319.603 292.155 316.961 294.601 313.803 295.022C310.811 295.421 309.282 294.478 311.226 292.209Z" fill="#FFA8A7"/>
<path d="M356.598 165.551C362.767 179.025 356.375 226.488 356.375 226.488C356.56 228.674 359.06 232.977 359.992 242.6C361.093 253.971 358.265 282.521 358.265 282.521C358.265 282.521 354.581 284.93 350.223 282.841C350.223 282.841 342.639 239.842 341.213 228.537C339.968 218.671 337.58 196.977 337.58 196.977L330.791 228.484C330.791 228.484 332.533 234.011 332.941 238.222C333.585 244.872 327.142 275.833 327.142 275.833C327.142 275.833 324.396 276.84 319.185 276.073C319.185 276.073 316.906 234.986 316.305 226.976C315.296 213.523 318.869 171.546 321.337 163.582L356.598 165.551Z" fill="#37474F"/>
<path d="M337.581 196.975L335.578 184.461C335.578 184.461 327.105 182.706 323.262 179.093C323.262 179.093 327.294 184.108 333.282 185.751L335.531 195.386L331.599 224.559L337.581 196.975Z" fill="#263238"/>
<path d="M332.547 118.375C332.547 118.375 326.572 117.498 322.423 122.911C319.237 127.068 307.05 142.938 307.05 142.938C307.05 142.938 289.086 133.948 288.203 132.883C287.319 131.817 287.816 129.662 288.059 128.476C288.303 127.29 288.704 124.656 288.968 123.915C289.43 122.623 287.518 122.972 286.392 124.179C285.239 125.416 284.766 127.747 284.203 128.153C283.642 128.559 279.368 123.643 277.293 121.271C275.219 118.899 274.246 117.239 272.856 118.218C271.854 118.923 272.497 120.331 273.984 122.364C275.471 124.396 275.688 124.615 275.905 125.056C276.083 125.42 275.534 125.711 275.317 125.905C274.915 126.265 274.199 126.855 274.149 127.418C274.122 127.725 274.178 128.042 274.093 128.339C273.899 129.015 273.062 129.333 272.826 129.995C272.655 130.474 272.844 131.011 272.747 131.511C272.685 131.833 272.507 132.124 272.45 132.447C272.337 133.081 272.701 133.7 273.115 134.192C274.572 135.925 276.564 136.589 278.474 137.646C280.062 138.525 281.702 138.91 283.53 139.722C285.359 140.535 306.581 155.246 309.938 153.392C313.295 151.539 330.637 131.366 330.637 131.366C335.641 123.079 332.547 118.375 332.547 118.375Z" fill="#FFA8A7"/>
<path d="M345.716 118.742C353.625 119.286 354.18 123.106 356.159 127.283C357.666 130.463 357.683 134.151 356.533 137.477L351.022 153.421C351.022 153.421 353.603 159.658 356.598 165.552C342.767 173.272 325.497 169.214 321.338 163.581C321.162 162.386 322.231 153.045 322.889 146.943C320.453 140.832 319.81 136.959 320.838 132.92C322.746 125.422 330.152 118.117 333.429 118.383L345.716 118.742Z" fill="#F5F5F5"/>
<path d="M338.113 112.187H341.182C350.11 112.187 357.347 104.95 357.347 96.022C357.347 87.046 350.071 79.769 341.094 79.769H338.2C329.224 79.769 321.947 87.046 321.947 96.022C321.947 104.95 329.185 112.187 338.113 112.187Z" fill="#263238"/>
<path d="M366.003 120.707C360.728 120.707 356.452 116.431 356.452 111.156V90.7051C361.727 90.7051 366.003 94.9811 366.003 100.256V120.707Z" fill="#263238"/>
<path d="M358.204 87.0771L355.81 90.9251C356.871 91.6351 358.268 91.3491 358.929 90.2861C359.59 89.2241 359.265 87.7871 358.204 87.0771Z" fill="#263238"/>
<path d="M327.763 86.9272C325.893 88.0322 323.583 92.7342 323.811 102.592C324.004 110.947 326.712 113.01 328.072 113.605C329.432 114.2 332.054 113.838 334.604 113.413V118.427C334.604 118.427 331.081 122.52 331.302 124.819C331.524 127.118 336.39 127.661 339.687 125.415C342.984 123.169 345.098 119.75 345.098 119.75V107.63C345.098 107.63 346.819 109.928 349.634 108.059C352.449 106.19 352.556 101.562 350.919 99.9012C349.282 98.2392 345.755 98.7662 345.097 101.061C345.097 101.061 341.031 101.209 335.617 98.2352C330.203 95.2612 328.123 90.1672 327.763 86.9272Z" fill="#FFA8A7"/>
<path d="M334.074 100.493C334.044 101.095 334.489 101.605 335.069 101.633C335.649 101.66 336.143 101.195 336.173 100.593C336.203 99.9913 335.758 99.4813 335.178 99.4533C334.599 99.4263 334.104 99.8913 334.074 100.493Z" fill="#263238"/>
<path d="M332.857 107.576L330.417 108.354C330.62 109.052 331.33 109.444 332.004 109.229C332.677 109.014 333.06 108.274 332.857 107.576Z" fill="#F28F8F"/>
<path d="M325.459 97.2669L327.585 95.7939C327.197 95.1869 326.407 95.0249 325.82 95.4319C325.232 95.8389 325.071 96.6599 325.459 97.2669Z" fill="#263238"/>
<path d="M325.95 99.7341C325.92 100.336 326.365 100.846 326.945 100.874C327.524 100.902 328.019 100.436 328.049 99.8341C328.079 99.2321 327.634 98.7221 327.055 98.6941C326.475 98.6661 325.98 99.1321 325.95 99.7341Z" fill="#263238"/>
<path d="M331.08 99.1318L330.913 105.457L327.585 104.426L331.08 99.1318Z" fill="#F28F8F"/>
<path d="M334.603 113.414C337.29 113.062 342.818 111.474 343.679 109.288C343.679 109.288 343.392 110.661 341.741 112.077C340.09 113.492 334.603 115.087 334.603 115.087V113.414Z" fill="#F28F8F"/>
<path opacity="0.1" d="M342.178 167.047C346.721 165.971 349.603 161.376 348.403 156.864C348.357 156.693 348.31 156.546 348.262 156.429C347.373 154.291 345.461 154.572 345.461 154.572C347.254 153.383 348.498 151.529 348.918 149.419L350.6 139.427C350.6 139.427 350.974 137.218 350.173 134.58L355.732 128.15C355.732 128.15 356.131 128.428 356.759 128.864C357.625 131.649 357.496 134.688 356.532 137.477L351.021 153.421C351.021 153.421 353.602 159.658 356.597 165.552C346.404 171.241 334.349 170.531 327.045 167.51C332.815 168.404 338.16 167.998 342.178 167.047Z" fill="black"/>
<path d="M370.754 158.43C363.573 129.078 358.263 119.289 349.541 119.403C346.995 122.447 347.698 131.641 351.723 137.221C351.723 137.221 360.696 156.152 362.128 162.881C363.386 168.793 364.81 176.231 364.72 181.314C364.704 182.214 364.333 183.07 363.723 183.732C362.085 185.508 362.078 186.938 361.017 188.902C360.186 190.44 359.276 191.015 359.536 191.361C359.869 191.806 360.921 192.386 362.23 191.56C362.888 191.145 363.316 190.657 364.271 189.602C364.271 189.602 364.011 191.983 362.652 195.047C360.811 199.2 361.259 201.319 366.865 199.84C370.378 198.913 372.583 195.987 373.109 187.544C373.261 185.112 373.49 181.275 373.202 178.199C372.451 170.192 371.91 163.155 370.754 158.43Z" fill="#FFA8A7"/>
<path d="M299.511 242.341C300.28 213.775 297.99 206.929 290.385 201.696L287.439 218.249C287.439 218.249 290.903 237.755 290.531 244.251C290.204 249.958 289.649 257.098 288.299 261.712C288.06 262.529 287.508 263.217 286.786 263.669C284.849 264.88 284.068 266.124 282.61 267.651C281.468 268.847 280.495 269.144 280.646 269.525C280.839 270.014 281.654 270.805 283.054 270.378C283.758 270.163 284.667 269.612 285.802 268.887C285.802 268.887 284.991 271.267 282.988 273.723C280.273 277.052 280.153 279.097 285.636 279.145C289.071 279.176 291.813 277.056 294.398 269.486C295.143 267.305 296.309 263.862 296.813 260.985C298.126 253.493 299.387 246.939 299.511 242.341Z" fill="#B16668"/>
<path d="M283.986 199.526C287.616 199 292.551 199.761 295.738 205.461C298.925 211.162 299.707 220.968 300.07 230.719C300.07 230.719 293.738 236.014 286.144 233.41L283.986 199.526Z" fill="#ACB0FF"/>
<path d="M294.666 356.641C295.242 356.859 295.388 357.957 295.475 360.14C295.541 361.792 295.895 364.675 293.96 365.251C292.025 365.827 289.191 365.533 287.951 363.975C286.403 362.032 285.357 360.321 283.148 357.95C281.232 355.893 279.159 353.973 278.386 351.088C277.687 348.481 278.269 347.35 280.048 346.592C282.494 345.55 286.336 348.955 288.252 349.491C289.902 349.955 294.09 356.423 294.666 356.641Z" fill="#263238"/>
<path d="M294.666 354.62V357.301C294.666 357.301 291.879 359.442 287.893 357.484C287.776 357.226 287.189 353.65 287.189 353.65L294.666 354.62Z" fill="#B16668"/>
<path d="M272.96 372.088C272.96 372.088 273.729 374.419 274.144 376.458C274.473 378.078 274.945 380.787 274.378 382.006C273.81 383.225 271.597 384.012 268.165 383.985C265.942 383.968 262.479 385.477 260.107 386.801C257.658 388.168 252.563 388.712 249.972 388.408C246.919 388.05 243.756 386.279 243.262 385.014C242.768 383.75 243.424 382.437 250.62 379.371C250.686 379.343 260.623 376.112 264.105 372.269L272.96 372.088Z" fill="#263238"/>
<path d="M272.96 369.191C272.96 369.191 272.95 371.18 272.96 372.317C272.97 373.454 271.627 375.148 268.152 375.024C265.711 374.937 264.007 374.281 264.104 372.27V369.372L272.96 369.191Z" fill="#B16668"/>
<path d="M296.41 319.049C295.183 310.291 293.245 305.089 293.245 305.089C293.245 305.089 294.202 293.045 294.661 281.625C295.157 269.29 294.635 253.785 294.869 250.708C294.869 250.708 255.067 242.655 254.357 256.914C253.647 271.173 255.928 307.469 256.399 313.733C256.869 319.997 257.952 325.537 259.246 335.689C260.523 345.709 264.103 369.371 264.103 369.371C268.65 371.829 272.959 369.19 272.959 369.19C272.959 369.19 275.76 340.679 275.466 333.452C275.107 324.626 272.725 317.676 272.725 317.676C272.725 317.676 273.48 305.919 274.146 295.692C274.812 285.465 275.518 280.553 275.673 276.105L276.53 275.681C276.53 275.681 277.403 293.324 277.873 299.588C278.344 305.852 279.34 311.858 281.152 323.493C282.724 333.586 287.406 354.942 287.406 354.942C291.953 357.4 294.666 354.62 294.666 354.62C294.666 354.62 297.638 327.807 296.41 319.049Z" fill="#37474F"/>
<path d="M275.674 276.105C275.674 276.105 285.329 271.347 290.162 267.056C290.162 267.056 285.675 273.379 279.785 276.182C279.785 276.182 277.69 298.099 277.701 297.664L276.491 276.073L275.674 276.105Z" fill="#263238"/>
<path d="M267.079 195.01L269.434 207.973L281.144 207.118L278.685 192.423L267.079 195.01Z" fill="#B16668"/>
<path d="M293.51 206.171C292.351 202.646 287.88 198.81 283.405 199.642C275.185 201.169 268.664 202.801 263.81 204.535C259.714 205.998 255.982 209.539 255.642 223.014C255.642 223.014 254.27 254.428 254.245 260.503C264.532 264.574 275.231 264.448 281.144 263.156C293.455 260.466 294.939 255.36 294.939 255.36C294.939 255.36 295.098 232.77 294.729 223.014C294.416 214.724 294.306 208.591 293.51 206.171Z" fill="#6768BA"/>
<path d="M258.046 179.243C258.046 179.243 255.077 183.977 255.437 184.427C255.798 184.877 258.069 185.24 258.069 185.24L258.046 179.243Z" fill="#B16668"/>
<path d="M266.291 166.145C260.099 167.598 258.365 170.373 258.001 180.269C257.621 190.609 258.748 193.832 260.136 195.192C261.073 196.109 266.166 196.165 268.718 195.399C271.911 194.441 279.115 191.704 282.399 186.433C286.261 180.231 287.126 171.925 282.766 168.624C276.631 163.978 268.811 165.554 266.291 166.145Z" fill="#B16668"/>
<path d="M267.212 195.719C269.313 194.029 269.125 192.94 269.125 192.94C267.618 194.347 262.041 195.553 260.138 195.192C260.914 195.952 264.539 196.119 267.212 195.719Z" fill="#9A4A4D"/>
<path d="M258.069 168.72C259.886 171.831 263.83 173.318 263.83 173.318C265.017 174.671 264.363 179.946 266.453 180.783C266.453 180.783 267.35 176.944 270.578 177.351C273.827 177.761 274.357 181.879 272.374 184.433C270.389 186.987 268.465 186.068 268.465 186.068C268.465 186.068 268.688 191.522 271.174 194.556C271.174 194.556 273.946 195.385 278.981 194.192C282.076 193.459 286.386 189.473 288.142 185.315C291.857 176.519 291.954 168.678 286.342 166.455C285.65 162.456 282.451 160.728 278.83 159.982C271.038 158.376 266.014 163.239 260.016 162.817C256.582 162.575 255.941 165.075 258.069 168.72Z" fill="#263238"/>
<path d="M286.469 167.796L290.142 165.518C289.513 164.504 288.18 164.191 287.166 164.821C286.152 165.449 285.84 166.781 286.469 167.796Z" fill="#263238"/>
<path d="M264.13 204.48C264.13 204.48 258.311 205.555 255.269 210.158C252.227 214.761 239.075 231.255 239.075 231.255C239.075 231.255 220.151 221.785 219.221 220.662C218.29 219.539 218.814 217.269 219.07 216.02C219.327 214.771 219.75 211.995 220.028 211.215C220.514 209.854 218.501 210.222 217.314 211.494C216.099 212.797 215.601 215.253 215.008 215.681C214.417 216.108 209.914 210.93 207.728 208.431C205.543 205.932 204.518 204.183 203.054 205.215C201.999 205.958 202.676 207.441 204.243 209.583C205.81 211.724 206.038 211.954 206.266 212.419C206.454 212.802 205.876 213.108 205.646 213.314C205.222 213.694 204.469 214.315 204.416 214.908C204.387 215.232 204.446 215.566 204.357 215.878C204.153 216.59 203.271 216.925 203.022 217.622C202.842 218.127 203.04 218.693 202.939 219.219C202.874 219.558 202.687 219.865 202.626 220.205C202.507 220.872 202.89 221.525 203.327 222.044C204.862 223.87 206.961 224.569 208.973 225.682C210.646 226.608 212.373 227.013 214.3 227.869C216.226 228.725 238.912 245.491 242.449 243.539C245.986 241.587 264.133 220.385 264.133 220.385C269.4 211.654 264.13 204.48 264.13 204.48Z" fill="#B16668"/>
<path d="M266.158 203.796C263.655 204.084 260.149 203.62 255.246 208.885C250.343 214.15 244.214 223.082 244.214 223.082C244.214 223.082 245.916 231.619 255.186 233.411C255.186 233.411 263.77 224.616 266.158 219.774C268.545 214.931 269.105 207.064 266.158 203.796Z" fill="#ACB0FF"/>
</svg>
