<svg width="21" height="19" viewBox="0 0 21 19" fill="none"
xmlns="http://www.w3.org/2000/svg">
<g clip-path="url(#clip0_14_1171)">
<path
d="M16.625 6.53887V5.43352C16.625 2.43268 13.8828 0 10.5 0C7.11722 0 4.375 2.43268 4.375 5.43352V6.53887C2.78253 7.15542 1.7523 8.54948 1.75 10.0908V14.7481C1.75287 16.8905 3.70993 18.6267 6.12497 18.6293H14.875C17.29 18.6267 19.2471 16.8905 19.25 14.7481V10.0908C19.2477 8.54948 18.2174 7.15542 16.625 6.53887ZM11.375 13.1957C11.375 13.6244 10.9832 13.9719 10.5 13.9719C10.0167 13.9719 9.625 13.6244 9.625 13.1957V11.6433C9.625 11.2146 10.0167 10.8671 10.5 10.8671C10.9832 10.8671 11.375 11.2146 11.375 11.6433V13.1957ZM14.875 6.20976H6.12497V5.43356C6.12497 3.2901 8.08371 1.55245 10.5 1.55245C12.9163 1.55245 14.875 3.29006 14.875 5.43356V6.20976Z"
fill="#5E5C5C" />
</g>
<defs>
<clipPath id="clip0_14_1171">
<rect width="21" height="18.6293" fill="white" />
</clipPath>
</defs>
</svg>