<svg width="423" height="272" viewBox="0 0 423 272" fill="none" xmlns="http://www.w3.org/2000/svg">
<path d="M50.951 79.809C50.951 79.809 37.6861 223.041 65.3322 269.085L311.223 271.993C311.223 271.993 270.49 147.832 274.02 76.0591L50.951 79.809Z" fill="#E0E0E0"/>
<path d="M50.9511 79.8091C50.9511 79.8091 35.3658 227.498 83.9231 259.061H320.902C320.902 259.061 278.844 186.966 275.527 79.8091H50.9511Z" fill="#EBEBEB"/>
<path d="M280.301 45.27H49.7505V82.2391H280.301V45.27Z" fill="#ECCB58"/>
<path d="M70.3533 45.5571C70.3533 45.5571 72.6759 37.2095 81.1482 37.2095C88.3646 37.2095 91.9431 43.0036 91.9431 48.3132C91.9431 53.7284 88.6635 59.2442 81.1482 59.6543" stroke="#E0E0E0" stroke-width="3" stroke-miterlimit="10" stroke-linecap="round" stroke-linejoin="round"/>
<path d="M78.3057 45.1414H66.9299V50.2215H78.3057V45.1414Z" fill="#263238"/>
<path d="M114.153 45.5571C114.153 45.5571 116.475 37.2095 124.947 37.2095C132.164 37.2095 135.742 43.0036 135.742 48.3132C135.742 53.7284 132.462 59.2442 124.947 59.6543" stroke="#E0E0E0" stroke-width="3" stroke-miterlimit="10" stroke-linecap="round" stroke-linejoin="round"/>
<path d="M122.105 45.1414H110.729V50.2215H122.105V45.1414Z" fill="#263238"/>
<path d="M157.952 45.5571C157.952 45.5571 160.275 37.2095 168.747 37.2095C175.964 37.2095 179.542 43.0036 179.542 48.3132C179.542 53.7284 176.263 59.2442 168.747 59.6543" stroke="#E0E0E0" stroke-width="3" stroke-miterlimit="10" stroke-linecap="round" stroke-linejoin="round"/>
<path d="M165.904 45.1414H154.528V50.2215H165.904V45.1414Z" fill="#263238"/>
<path d="M201.752 45.5571C201.752 45.5571 204.075 37.2095 212.547 37.2095C219.763 37.2095 223.342 43.0036 223.342 48.3132C223.342 53.7284 220.062 59.2442 212.547 59.6543" stroke="#E0E0E0" stroke-width="3" stroke-miterlimit="10" stroke-linecap="round" stroke-linejoin="round"/>
<path d="M209.703 45.1414H198.328V50.2215H209.703V45.1414Z" fill="#263238"/>
<path d="M245.551 45.5571C245.551 45.5571 247.873 37.2095 256.346 37.2095C263.562 37.2095 267.141 43.0036 267.141 48.3132C267.141 53.7284 263.861 59.2442 256.346 59.6543" stroke="#E0E0E0" stroke-width="3" stroke-miterlimit="10" stroke-linecap="round" stroke-linejoin="round"/>
<path d="M253.502 45.1414H242.126V50.2215H253.502V45.1414Z" fill="#263238"/>
<path d="M49.7697 83.6091C49.7697 83.6091 47.2176 248.205 100.575 248.205L319.721 248.279C319.721 248.279 288.401 216.325 279.119 83.6084H49.7697V83.6091Z" fill="#F5F5F5"/>
<path d="M288.46 227.887C288.409 227.746 288.173 227.083 287.657 225.634C287.143 224.145 286.335 221.98 285.38 219.081C283.416 213.308 280.681 204.769 277.539 193.741C271.232 171.701 263.622 139.579 257.701 99.9842L257.848 100.112C206.045 100.122 141.653 100.134 72.0327 100.147C71.4384 100.147 70.8441 100.147 70.2619 100.147L70.4446 99.9374C73.79 123.768 77.2269 146.992 82.7865 168.747C85.561 179.617 88.8718 190.102 92.8646 200.01C96.8497 209.919 101.524 219.239 106.806 227.8L106.664 227.721C214.346 227.82 286.989 227.886 288.46 227.887C286.99 227.888 214.346 227.955 106.665 228.053H106.572L106.523 227.974C101.226 219.399 96.538 210.063 92.5423 200.139C88.5389 190.216 85.2196 179.716 82.4394 168.835C76.867 147.056 73.4267 123.819 70.0805 99.987L70.0508 99.7766H70.2633C70.8455 99.7766 71.4398 99.7766 72.0341 99.7766C141.655 99.7901 206.046 99.8021 257.85 99.8113H257.979L257.998 99.9388C263.883 139.524 271.448 171.645 277.704 193.693C280.82 204.725 283.529 213.271 285.465 219.051C287.407 224.784 288.362 227.599 288.46 227.887Z" fill="#263238"/>
<path d="M268.77 163.831C268.77 163.933 226.922 164.015 175.312 164.015C123.684 164.015 81.8462 163.932 81.8462 163.831C81.8462 163.729 123.685 163.646 175.312 163.646C226.922 163.646 268.77 163.729 268.77 163.831Z" fill="#263238"/>
<path d="M278.844 198.018C278.844 198.12 236.986 198.202 185.363 198.202C133.723 198.202 91.874 198.119 91.874 198.018C91.874 197.916 133.723 197.834 185.363 197.834C236.985 197.834 278.844 197.916 278.844 198.018Z" fill="#263238"/>
<path d="M262.444 130.881C262.444 130.983 220.598 131.066 168.991 131.066C117.366 131.066 75.5286 130.983 75.5286 130.881C75.5286 130.78 117.365 130.697 168.991 130.697C220.598 130.697 262.444 130.779 262.444 130.881Z" fill="#263238"/>
<path d="M137.117 227.887C137.117 227.887 137.072 227.781 137.001 227.567C136.928 227.339 136.826 227.023 136.695 226.618C136.428 225.765 136.043 224.535 135.55 222.958C134.557 219.779 133.169 215.165 131.493 209.451C128.154 198.02 123.734 182.166 119.466 164.501C117.335 155.666 115.433 147.218 113.806 139.512C112.209 131.801 110.828 124.845 109.789 118.981C109.245 116.053 108.796 113.398 108.403 111.065C108 108.734 107.672 106.724 107.424 105.077C107.174 103.444 106.978 102.17 106.843 101.287C106.782 100.865 106.735 100.537 106.701 100.299C106.671 100.077 106.665 99.9614 106.665 99.9614C106.665 99.9614 106.696 100.073 106.738 100.294C106.781 100.53 106.84 100.856 106.916 101.275C107.067 102.155 107.286 103.425 107.565 105.053C107.835 106.696 108.184 108.702 108.605 111.029C109.017 113.357 109.484 116.009 110.044 118.933C111.116 124.788 112.524 131.737 114.138 139.441C115.782 147.139 117.694 155.581 119.824 164.413C124.089 182.071 128.469 197.929 131.743 209.376C133.387 215.098 134.735 219.723 135.687 222.915C136.151 224.5 136.513 225.737 136.765 226.595C136.881 227.004 136.971 227.323 137.036 227.555C137.096 227.774 137.117 227.887 137.117 227.887Z" fill="#263238"/>
<path d="M173.392 227.887C173.392 227.887 173.347 227.78 173.278 227.567C173.206 227.337 173.106 227.021 172.978 226.615C172.718 225.761 172.341 224.527 171.86 222.948C170.889 219.762 169.529 215.139 167.87 209.421C164.582 197.976 160.139 182.131 155.813 164.481C151.456 146.833 148.085 130.718 145.987 118.994C145.453 116.065 144.988 113.412 144.615 111.076C144.228 108.743 143.895 106.732 143.661 105.083C143.423 103.449 143.236 102.174 143.107 101.289C143.05 100.867 143.005 100.539 142.973 100.301C142.944 100.078 142.939 99.9622 142.939 99.9622C142.939 99.9622 142.97 100.074 143.01 100.295C143.051 100.532 143.108 100.858 143.181 101.278C143.326 102.159 143.535 103.431 143.803 105.06C144.059 106.705 144.411 108.711 144.818 111.04C145.21 113.372 145.693 116.021 146.244 118.946C148.406 130.653 151.816 146.75 156.171 164.392C160.495 182.036 164.897 197.888 168.121 209.349C169.754 215.061 171.077 219.689 171.997 222.907C172.451 224.495 172.804 225.734 173.049 226.594C173.162 227.005 173.25 227.324 173.314 227.556C173.371 227.774 173.392 227.887 173.392 227.887Z" fill="#263238"/>
<path d="M211.274 227.887C211.274 227.887 211.228 227.781 211.157 227.567C211.082 227.339 210.979 227.024 210.847 226.619C210.576 225.767 210.186 224.537 209.687 222.962C208.68 219.786 207.27 215.176 205.55 209.472C202.144 198.056 197.551 182.244 193.158 164.601C188.73 146.96 185.428 130.817 183.497 119.058C183.008 116.119 182.574 113.459 182.251 111.115C181.911 108.772 181.61 106.757 181.421 105.101C181.222 103.461 181.066 102.181 180.959 101.292C180.911 100.869 180.874 100.54 180.848 100.301C180.825 100.077 180.822 99.9614 180.822 99.9614C180.822 99.9614 180.85 100.074 180.885 100.296C180.92 100.534 180.969 100.862 181.032 101.283C181.156 102.169 181.334 103.446 181.563 105.082C181.774 106.734 182.096 108.746 182.455 111.084C182.798 113.425 183.249 116.08 183.754 119.014C185.749 130.755 189.089 146.879 193.515 164.511C197.907 182.147 202.459 197.965 205.8 209.398C207.496 215.095 208.869 219.711 209.825 222.92C210.296 224.504 210.663 225.74 210.918 226.597C211.036 227.006 211.127 227.325 211.194 227.556C211.253 227.774 211.274 227.887 211.274 227.887Z" fill="#263238"/>
<path d="M249.158 227.887C249.158 227.887 249.111 227.78 249.037 227.569C248.96 227.341 248.854 227.027 248.718 226.622C248.439 225.772 248.038 224.546 247.523 222.974C246.484 219.806 245.032 215.206 243.254 209.516C239.738 198.126 234.994 182.347 230.499 164.717C228.236 155.903 226.279 147.455 224.689 139.733C223.859 135.879 223.199 132.19 222.539 128.748C222.244 127.02 221.959 125.351 221.685 123.747C221.409 122.143 221.15 120.603 220.945 119.126C219.153 107.333 218.705 99.9626 218.705 99.9626C218.705 99.9626 218.729 100.076 218.757 100.299C218.786 100.538 218.825 100.867 218.875 101.291C218.972 102.18 219.113 103.462 219.293 105.105C219.447 106.764 219.743 108.782 220.043 111.129C220.324 113.48 220.753 116.141 221.203 119.086C221.416 120.56 221.682 122.098 221.966 123.699C222.246 125.302 222.538 126.968 222.84 128.693C223.513 132.131 224.183 135.815 225.021 139.664C226.628 147.377 228.594 155.817 230.856 164.627C235.349 182.247 240.051 198.033 243.503 209.441C245.254 215.125 246.673 219.73 247.659 222.933C248.145 224.513 248.524 225.746 248.788 226.602C248.91 227.011 249.004 227.329 249.073 227.559C249.136 227.773 249.158 227.887 249.158 227.887Z" fill="#263238"/>
<path d="M112.336 112.633C112.336 112.633 113.932 128.153 120.092 137.841H156.366C156.366 137.841 147.545 122.145 146.481 111.239L145.683 105.12H111.755L112.336 112.633Z" fill="#5D46E7"/>
<path d="M142.458 115.353C142.458 115.455 137.291 115.537 130.919 115.537C124.545 115.537 119.38 115.454 119.38 115.353C119.38 115.251 124.545 115.168 130.919 115.168C137.291 115.168 142.458 115.251 142.458 115.353Z" fill="#FAFAFA"/>
<path d="M143.611 119.275C143.611 119.377 138.445 119.46 132.073 119.46C125.699 119.46 120.533 119.377 120.533 119.275C120.533 119.174 125.699 119.091 132.073 119.091C138.445 119.091 143.611 119.173 143.611 119.275Z" fill="#FAFAFA"/>
<path d="M144.765 123.199C144.765 123.301 139.599 123.383 133.227 123.383C126.852 123.383 121.687 123.3 121.687 123.199C121.687 123.097 126.852 123.015 133.227 123.015C139.599 123.015 144.765 123.097 144.765 123.199Z" fill="#FAFAFA"/>
<path d="M145.919 127.122C145.919 127.224 140.753 127.307 134.381 127.307C128.006 127.307 122.841 127.224 122.841 127.122C122.841 127.02 128.006 126.938 134.381 126.938C140.753 126.937 145.919 127.02 145.919 127.122Z" fill="#FAFAFA"/>
<path d="M236.867 150.886C236.867 150.886 238.463 166.406 244.623 176.094H280.897C280.897 176.094 272.076 160.398 271.012 149.492L270.214 143.373H236.286L236.867 150.886Z" fill="#5D46E7"/>
<path d="M266.989 152.83C266.989 152.932 261.823 153.014 255.451 153.014C249.077 153.014 243.911 152.931 243.911 152.83C243.911 152.728 249.077 152.646 255.451 152.646C261.823 152.645 266.989 152.728 266.989 152.83Z" fill="#E0E0E0"/>
<path d="M268.143 156.753C268.143 156.855 262.977 156.937 256.605 156.937C250.231 156.937 245.065 156.854 245.065 156.753C245.065 156.651 250.231 156.569 256.605 156.569C262.977 156.568 268.143 156.651 268.143 156.753Z" fill="#E0E0E0"/>
<path d="M269.297 160.676C269.297 160.778 264.131 160.86 257.759 160.86C251.384 160.86 246.219 160.777 246.219 160.676C246.219 160.575 251.385 160.492 257.759 160.492C264.131 160.492 269.297 160.574 269.297 160.676Z" fill="#E0E0E0"/>
<path d="M270.451 164.599C270.451 164.701 265.285 164.783 258.912 164.783C252.538 164.783 247.373 164.7 247.373 164.599C247.373 164.497 252.538 164.415 258.912 164.415C265.285 164.415 270.451 164.497 270.451 164.599Z" fill="#E0E0E0"/>
<path d="M213.459 102.863C213.835 103.169 209.137 109.418 202.042 115.897C194.965 122.4 188.328 126.531 188.057 126.13C187.747 125.695 193.82 120.948 200.796 114.537C207.792 108.152 213.053 102.516 213.459 102.863Z" fill="#E8505B"/>
<path d="M220.338 126.716C220.036 127.139 212.11 121.979 202.353 115.614C192.6 109.236 184.69 104.055 184.956 103.609C185.21 103.18 193.571 107.669 203.362 114.07C213.156 120.458 220.629 126.311 220.338 126.716Z" fill="#E8505B"/>
<path d="M151.89 123.835C151.582 123.43 156.8 118.938 163.543 113.805C170.289 108.67 176.005 104.837 176.314 105.242C176.622 105.647 171.406 110.137 164.66 115.273C157.917 120.406 152.199 124.24 151.89 123.835Z" fill="#E8505B"/>
<path d="M180.54 126.028C180.216 126.447 173.272 121.555 164.459 115.934C155.658 110.29 148.305 106.038 148.55 105.569C148.77 105.132 156.57 108.684 165.453 114.38C174.347 120.053 180.844 125.645 180.54 126.028Z" fill="#E8505B"/>
<path d="M182.538 167.363C182.534 167.304 182.899 167.224 183.61 167.174C184.319 167.146 185.382 167.177 186.713 167.481C188.034 167.794 189.642 168.358 191.273 169.44C192.913 170.49 194.58 172.069 195.855 174.213C197.122 176.351 197.921 179.05 197.944 181.978C197.957 183.44 197.779 184.957 197.377 186.469C196.965 187.977 196.316 189.477 195.439 190.877C193.678 193.676 190.997 196.07 187.738 197.582C184.496 199.129 180.614 199.639 176.873 198.972C173.126 198.319 169.665 196.562 167.096 194.022C164.497 191.492 162.941 188.184 162.375 184.952C161.786 181.703 162.173 178.485 163.222 175.753C163.739 174.381 164.446 173.135 165.281 172.057C166.106 170.975 167.035 170.044 168.024 169.3C169.971 167.758 172.084 166.905 173.959 166.414C175.849 165.933 177.546 165.876 178.898 166.001C179.238 166.016 179.556 166.066 179.853 166.12C180.15 166.174 180.429 166.208 180.682 166.273C181.186 166.416 181.614 166.514 181.945 166.648C182.606 166.917 182.935 167.085 182.913 167.145C182.861 167.324 181.468 166.733 178.864 166.718C177.572 166.706 175.98 166.864 174.235 167.407C172.504 167.959 170.576 168.836 168.84 170.316C167.956 171.03 167.14 171.906 166.424 172.904C165.7 173.895 165.09 175.036 164.653 176.289C163.764 178.78 163.465 181.709 164.046 184.643C164.607 187.571 166.026 190.491 168.358 192.729C170.666 194.984 173.801 196.567 177.192 197.155C180.584 197.754 184.04 197.315 186.982 195.941C189.936 194.597 192.388 192.453 194.007 189.962C194.814 188.713 195.415 187.385 195.814 186.031C196.202 184.675 196.393 183.303 196.413 181.974C196.457 179.312 195.801 176.837 194.718 174.854C193.631 172.871 192.163 171.345 190.686 170.288C189.22 169.201 187.748 168.574 186.522 168.173C184.04 167.406 182.535 167.536 182.538 167.363Z" fill="#E8505B"/>
<path d="M81.7753 159.719C81.3885 159.403 85.851 153.323 92.1211 146.475C98.2843 139.727 103.934 134.522 104.391 134.988C104.755 135.358 99.7087 140.901 93.4825 147.72C87.2485 154.527 82.1755 160.049 81.7753 159.719Z" fill="#E8505B"/>
<path d="M110.503 156.828C110.235 157.262 102.987 153.267 94.3174 147.909C85.6439 142.548 78.8327 137.853 79.1004 137.419C79.3682 136.987 86.5357 140.979 95.2092 146.34C103.879 151.699 110.77 156.395 110.503 156.828Z" fill="#E8505B"/>
<path d="M179.407 172.983L182.177 176.957C182.407 177.287 182.784 177.482 183.186 177.48L188.03 177.451C189.041 177.445 189.621 178.601 189.01 179.408L186.086 183.271C185.844 183.591 185.775 184.01 185.901 184.391L187.425 188.99C187.743 189.95 186.822 190.858 185.867 190.527L181.29 188.94C180.91 188.808 180.49 188.872 180.166 189.11L176.264 191.981C175.449 192.58 174.3 191.985 174.32 190.974L174.415 186.13C174.423 185.729 174.233 185.349 173.907 185.114L169.97 182.29C169.149 181.7 169.36 180.425 170.327 180.131L174.963 178.724C175.348 178.607 175.651 178.309 175.772 177.926L177.242 173.31C177.55 172.347 178.828 172.154 179.407 172.983Z" fill="#E8505B"/>
<path d="M254.831 103.032C255.171 103.412 248.999 109.491 241.047 116.609C233.092 123.729 226.371 129.191 226.031 128.812C225.692 128.432 231.862 122.355 239.817 115.234C247.768 108.116 254.492 102.652 254.831 103.032Z" fill="#E8505B"/>
<path d="M259.458 124.912C259.23 125.368 250.582 121.494 240.146 116.261C229.705 111.026 221.43 106.415 221.658 105.959C221.886 105.505 230.532 109.377 240.972 114.612C251.409 119.845 259.686 124.457 259.458 124.912Z" fill="#E8505B"/>
<path d="M246.219 111.187H288.46L298.595 119.025L289.657 126.359L249.158 126.313L246.219 111.187Z" fill="#8CC3DD"/>
<path opacity="0.2" d="M179.407 172.983L182.177 176.958C182.407 177.287 182.784 177.483 183.186 177.48L188.03 177.451C189.041 177.445 189.621 178.602 189.01 179.408L186.086 183.271C185.844 183.591 185.775 184.01 185.901 184.392L187.425 188.99C187.743 189.95 186.822 190.859 185.867 190.527L181.29 188.94C180.91 188.809 180.49 188.872 180.166 189.11L176.264 191.981C175.449 192.581 174.3 191.986 174.32 190.974L174.415 186.13C174.423 185.729 174.233 185.349 173.907 185.115L169.97 182.291C169.149 181.701 169.36 180.425 170.327 180.131L174.963 178.724C175.348 178.607 175.651 178.309 175.772 177.927L177.242 173.31C177.55 172.347 178.828 172.154 179.407 172.983Z" fill="white"/>
<path d="M324.744 40.8226C328.356 25.4999 318.862 10.1507 303.539 6.5393C288.217 2.92785 272.868 12.4217 269.256 27.7444C265.645 43.0671 275.139 58.4162 290.461 62.0276C305.784 65.6391 321.133 56.1453 324.744 40.8226Z" fill="#FAE7E7"/>
<path d="M309.959 35.1544C309.959 35.1777 309.602 35.2004 308.952 35.2209C308.239 35.2351 307.309 35.2542 306.181 35.2769C303.83 35.3095 300.555 35.3314 296.858 35.3371H296.675V35.1536C296.674 34.5622 296.674 33.9382 296.673 33.3049C296.673 29.1754 296.694 25.4382 296.727 22.7324C296.751 21.4277 296.771 20.3482 296.786 19.5286C296.808 18.7721 296.832 18.3535 296.858 18.3535C296.883 18.3535 296.907 18.7714 296.929 19.5286C296.944 20.3489 296.964 21.4284 296.988 22.7324C297.021 25.4382 297.042 29.1754 297.042 33.3049C297.041 33.9382 297.041 34.5615 297.04 35.1536L296.858 34.9709C300.555 34.9766 303.83 34.9985 306.181 35.0311C307.309 35.0538 308.239 35.0729 308.952 35.0871C309.602 35.1083 309.959 35.131 309.959 35.1544Z" fill="#46A2C9"/>
<path d="M296.945 10.4551C297.047 10.4551 297.13 11.5275 297.13 12.8492C297.13 14.1717 297.047 15.2441 296.945 15.2441C296.843 15.2441 296.761 14.1724 296.761 12.8492C296.761 11.5268 296.843 10.4551 296.945 10.4551Z" fill="#46A2C9"/>
<path d="M309.933 14.3006C310.006 14.3729 309.316 15.1782 308.395 16.0998C307.473 17.0213 306.667 17.7105 306.596 17.6383C306.524 17.566 307.213 16.7606 308.134 15.8391C309.056 14.9169 309.862 14.2284 309.933 14.3006Z" fill="#46A2C9"/>
<path d="M317.527 22.5966C317.574 22.6894 316.669 23.2333 315.563 23.9077C314.454 24.5799 313.556 25.1317 313.495 25.0474C313.436 24.9673 314.248 24.2732 315.372 23.5925C316.493 22.9089 317.483 22.5073 317.527 22.5966Z" fill="#46A2C9"/>
<path d="M321.978 34.9073C321.978 35.0093 320.516 35.0915 318.714 35.0915C316.91 35.0915 315.448 35.0086 315.448 34.9073C315.448 34.806 316.91 34.7231 318.714 34.7231C320.516 34.7231 321.978 34.8053 321.978 34.9073Z" fill="#46A2C9"/>
<path d="M276.701 34.4715C276.701 34.5735 275.321 34.6557 273.618 34.6557C271.914 34.6557 270.534 34.5728 270.534 34.4715C270.534 34.3695 271.914 34.2874 273.618 34.2874C275.32 34.2874 276.701 34.3702 276.701 34.4715Z" fill="#46A2C9"/>
<path d="M279.903 43.6374C279.97 43.7146 278.927 44.6609 277.573 45.751C276.219 46.8418 275.072 47.6593 275.011 47.5778C274.95 47.4963 275.994 46.55 277.342 45.4641C278.69 44.3783 279.836 43.5602 279.903 43.6374Z" fill="#46A2C9"/>
<path d="M287.803 50.7257C287.888 50.788 287.114 51.9773 286.217 53.4747C285.316 54.97 284.628 56.2117 284.534 56.1656C284.445 56.1239 284.99 54.7972 285.901 53.2849C286.808 51.7712 287.724 50.6662 287.803 50.7257Z" fill="#46A2C9"/>
<path d="M296.945 59.868C296.843 59.868 296.761 58.406 296.761 56.6033C296.761 54.7999 296.844 53.3379 296.945 53.3379C297.047 53.3379 297.13 54.7992 297.13 56.6033C297.13 58.406 297.047 59.868 296.945 59.868Z" fill="#46A2C9"/>
<path d="M311.02 55.5175C310.968 55.5996 309.69 54.8651 308.328 53.673C306.961 52.4851 306.059 51.3199 306.134 51.2576C306.214 51.1867 307.225 52.2266 308.57 53.3946C309.911 54.5683 311.079 55.4282 311.02 55.5175Z" fill="#46A2C9"/>
<path d="M317.625 48.4031C317.553 48.4754 316.585 47.6239 315.463 46.502C314.341 45.38 313.49 44.4117 313.562 44.3401C313.634 44.2686 314.602 45.1193 315.724 46.2413C316.845 47.3633 317.697 48.3316 317.625 48.4031Z" fill="#46A2C9"/>
<path d="M279.603 25.692C279.531 25.7643 278.677 25.0262 277.695 24.0445C276.713 23.0627 275.976 22.2085 276.048 22.1362C276.12 22.064 276.974 22.8014 277.956 23.7838C278.938 24.7663 279.676 25.6205 279.603 25.692Z" fill="#46A2C9"/>
<path d="M287.755 17.1048C287.683 17.1771 286.844 16.4574 285.88 15.4983C284.916 14.5385 284.192 13.702 284.265 13.6298C284.336 13.5575 285.176 14.2772 286.14 15.237C287.104 16.196 287.827 17.0326 287.755 17.1048Z" fill="#46A2C9"/>
<path d="M49.5474 32.1432L24.8357 34.4866L26.4152 51.1434L51.1269 48.8001L49.5474 32.1432Z" fill="white"/>
<path d="M51.1445 48.7834C51.1388 48.7785 51.1232 48.6722 51.0984 48.4704C51.0729 48.2472 51.0397 47.954 50.9979 47.5821C50.9129 46.7845 50.7932 45.6555 50.6416 44.2225C50.3469 41.3141 49.9276 37.1754 49.4176 32.1406L49.5784 32.2737C42.7501 32.9318 34.1687 33.7584 24.8712 34.6544C24.8329 34.6976 25.1835 34.2747 25.0355 34.4561L25.0362 34.4603L25.0369 34.4688L25.0384 34.4865L25.0419 34.5213L25.0483 34.5907L25.0617 34.7295L25.0879 35.0072L25.1403 35.5611C25.1751 35.9301 25.2097 36.2977 25.2444 36.6639C25.3139 37.3964 25.3826 38.1238 25.4506 38.8456C25.5866 40.2892 25.7204 41.7101 25.8515 43.1048C26.1121 45.8928 26.3622 48.5731 26.5995 51.1117L26.4153 50.9594C33.6629 50.3056 39.8162 49.751 44.1873 49.3572C46.3555 49.1709 48.081 49.0229 49.2915 48.9187C49.8695 48.8727 50.3242 48.8359 50.6586 48.8096C50.8024 48.7997 50.9185 48.7926 51.0156 48.7856C51.097 48.7813 51.1402 48.7806 51.1445 48.7834C51.1516 48.7891 51.0007 48.8104 50.7011 48.8458C50.3759 48.8819 49.9339 48.9301 49.3715 48.9924C48.1716 49.1171 46.4631 49.2948 44.3141 49.518C39.9203 49.9557 33.7338 50.5713 26.4479 51.2966L26.28 51.3136L26.2638 51.1443C26.0194 48.6064 25.7615 45.9268 25.4931 43.1395C25.3599 41.7455 25.2239 40.3246 25.0858 38.881C25.0171 38.1592 24.9477 37.4318 24.8783 36.6994C24.8436 36.3332 24.8088 35.9655 24.7734 35.5965L24.721 35.0426L24.6948 34.7649L24.6813 34.6261L24.675 34.5567L24.6714 34.522L24.67 34.5042L24.6693 34.4957V34.4915C24.5205 34.6693 24.8712 34.2436 24.8372 34.2882C34.1375 33.4198 42.7211 32.6187 49.5515 31.9805L49.6995 31.9663L49.7122 32.1129C50.1613 37.1916 50.5311 41.3665 50.791 44.3004C50.91 45.7228 51.0035 46.8426 51.0694 47.6345C51.097 47.9958 51.1183 48.2812 51.1346 48.498C51.1459 48.6914 51.1501 48.7884 51.1445 48.7834Z" fill="black"/>
<path d="M49.5644 32.1264C49.5828 32.1426 49.3136 32.477 48.81 33.0684C48.261 33.6996 47.5321 34.5389 46.6467 35.5575C44.8051 37.6534 42.2331 40.542 39.3517 43.7472L39.2476 43.8634L39.1158 43.7798C38.9075 43.6466 38.683 43.5042 38.4577 43.3604C34.6724 40.9479 31.2576 38.7471 28.7954 37.1385C27.6061 36.3522 26.6258 35.7041 25.8899 35.2175C25.581 35.0043 25.3239 34.8272 25.11 34.6792C24.9336 34.5524 24.8444 34.4808 24.8515 34.4702C24.8585 34.4596 24.9606 34.5099 25.1497 34.6161C25.3735 34.7479 25.6434 34.9058 25.9671 35.0957C26.7186 35.5575 27.7209 36.1723 28.9357 36.9182C31.4332 38.4709 34.8708 40.6369 38.6561 43.0495C38.8813 43.1933 39.1052 43.3364 39.3141 43.4688L39.0783 43.5007C41.9633 40.2983 44.5664 37.4381 46.4576 35.3868C47.3784 34.3994 48.1363 33.5862 48.7065 32.9742C49.242 32.4125 49.5459 32.1101 49.5644 32.1264Z" fill="black"/>
<path d="M297.213 243.182C284.373 234.211 281.46 217.56 281.968 202.592C282.052 200.094 281.778 197.46 282.967 195.268C284.156 193.076 286.928 191.578 289.166 192.63C291.022 193.504 291.83 195.662 292.868 197.447C294.249 199.822 296.307 201.787 298.728 203.044C300.319 203.869 302.288 204.374 303.858 203.508C306.013 202.318 306.267 199.341 306.252 196.856C306.223 192.224 306.194 187.592 306.164 182.962C306.149 180.477 306.142 177.94 306.915 175.582C307.687 173.224 309.395 171.033 311.759 170.37C314.123 169.708 317.046 171.071 317.545 173.503C317.753 174.515 317.547 175.565 317.616 176.597C317.685 177.629 318.166 178.77 319.145 179.057C320.137 179.348 321.131 178.644 321.874 177.916C324.439 175.407 326.18 172.175 327.807 168.961C329.433 165.747 331.012 162.456 333.339 159.719C335.666 156.983 338.886 154.814 342.444 154.612C346.004 154.411 349.795 156.608 350.694 160.101C351.596 163.605 349.552 167.159 347.328 169.994C344.029 174.202 340.125 177.923 335.78 181.003C334.996 181.559 334.147 182.16 333.848 183.08C333.308 184.737 334.878 186.382 336.514 186.927C338.366 187.544 340.375 187.351 342.313 187.579C344.251 187.807 346.35 188.662 347.083 190.493C348.101 193.033 345.977 195.695 343.886 197.439C339.702 200.931 334.922 203.69 329.824 205.557C327.996 206.226 326.072 206.813 324.598 208.098C323.124 209.382 325.411 213.928 326.302 215.678C327.193 217.43 326.302 215.678 328.216 215.322C330.13 214.968 331.844 213.928 333.669 213.24C337.084 211.951 341.494 212.187 343.681 215.138C345.118 217.078 345.245 219.779 344.518 222.091C343.791 224.404 342.316 226.396 340.751 228.232C335.277 234.654 328.271 239.824 320.349 242.57C312.426 245.319 305.086 246.062 297.213 243.182Z" fill="#66C280" fill-opacity="0.81"/>
<path d="M297.017 254.28C297.558 248.351 298.859 241.348 301.077 233.8C303.28 226.246 306.381 218.167 309.915 209.827C310.806 207.746 311.688 205.689 312.555 203.663C313.426 201.642 314.29 199.637 315.256 197.728C317.171 193.902 319.305 190.37 321.435 187.079C323.564 183.787 325.704 180.741 327.726 177.907C329.756 175.077 331.696 172.474 333.566 170.177C337.294 165.568 340.734 162.214 343.189 160.006C344.414 158.899 345.393 158.071 346.065 157.518C346.388 157.256 346.641 157.05 346.832 156.895C347.006 156.757 347.098 156.689 347.103 156.695C347.109 156.701 347.027 156.781 346.862 156.931C346.679 157.094 346.435 157.312 346.124 157.589C345.473 158.164 344.514 159.013 343.307 160.139C340.893 162.384 337.5 165.762 333.816 170.383C331.967 172.687 330.045 175.294 328.033 178.13C326.025 180.972 323.9 184.022 321.785 187.312C319.671 190.6 317.554 194.124 315.655 197.932C314.697 199.831 313.843 201.819 312.971 203.846C312.104 205.871 311.225 207.928 310.335 210.008C306.804 218.341 303.698 226.397 301.479 233.92C299.247 241.439 297.919 248.407 297.337 254.31" fill="white"/>
<path d="M315.386 197.71C315.355 197.715 315.271 197.337 315.143 196.65C315.012 195.963 314.857 194.964 314.682 193.726C314.331 191.252 313.962 187.818 313.57 184.032C313.178 180.243 312.762 176.824 312.374 174.363C312.183 173.132 312.019 172.136 311.896 171.449C311.778 170.762 311.727 170.378 311.757 170.371C311.789 170.364 311.898 170.734 312.07 171.412C312.246 172.088 312.459 173.078 312.691 174.306C313.163 176.763 313.632 180.19 314.024 183.982C314.402 187.72 314.742 191.101 315.003 193.685C315.128 194.851 315.235 195.834 315.32 196.623C315.392 197.318 315.418 197.705 315.386 197.71Z" fill="white"/>
<path d="M347.335 191.739C347.335 191.771 346.881 191.823 346.06 191.891C345.24 191.964 344.054 192.063 342.592 192.232C339.666 192.548 335.639 193.126 331.224 193.958C326.809 194.798 322.846 195.728 319.999 196.484C318.573 196.851 317.426 197.18 316.633 197.402C315.839 197.628 315.397 197.738 315.386 197.708C315.376 197.677 315.802 197.509 316.58 197.23C317.36 196.956 318.495 196.578 319.915 196.168C322.747 195.329 326.712 194.345 331.14 193.502C335.568 192.669 339.617 192.14 342.56 191.907C344.032 191.778 345.225 191.728 346.051 191.711C346.877 191.699 347.333 191.706 347.335 191.739Z" fill="white"/>
<path d="M301.47 233.212C301.455 233.218 301.38 233.085 301.251 232.822C301.103 232.51 300.923 232.128 300.705 231.667C300.235 230.661 299.593 229.187 298.823 227.357C297.282 223.697 295.312 218.574 293.215 212.892C291.116 207.208 289.196 202.074 287.733 198.387C287.016 196.595 286.426 195.121 285.988 194.025C285.8 193.549 285.646 193.158 285.52 192.835C285.418 192.562 285.37 192.414 285.385 192.407C285.4 192.402 285.474 192.536 285.604 192.798C285.751 193.11 285.932 193.491 286.15 193.953C286.62 194.959 287.262 196.432 288.031 198.262C289.573 201.922 291.542 207.045 293.641 212.729C295.739 218.412 297.658 223.546 299.121 227.232C299.838 229.024 300.428 230.498 300.866 231.594C301.054 232.07 301.208 232.462 301.334 232.784C301.437 233.058 301.484 233.206 301.47 233.212Z" fill="white"/>
<path d="M343.924 219.529C343.928 219.545 343.782 219.604 343.502 219.703C343.17 219.814 342.763 219.951 342.269 220.116C341.13 220.485 339.593 220.983 337.723 221.589C333.885 222.834 328.603 224.614 322.769 226.589C316.934 228.565 311.63 230.299 307.764 231.464C305.832 232.048 304.264 232.504 303.174 232.797C302.669 232.929 302.254 233.038 301.917 233.127C301.628 233.198 301.473 233.227 301.469 233.211C301.465 233.196 301.611 233.137 301.89 233.037C302.221 232.927 302.629 232.791 303.123 232.625C304.262 232.255 305.799 231.758 307.669 231.151C311.507 229.907 316.79 228.126 322.625 226.151C328.459 224.175 333.762 222.442 337.627 221.277C339.559 220.693 341.127 220.237 342.219 219.944C342.723 219.811 343.138 219.701 343.476 219.614C343.765 219.543 343.919 219.514 343.924 219.529Z" fill="white"/>
<path d="M357.492 267.343L357.526 261.383L368.692 261.374L368.735 270.095L368.043 270.14C364.962 270.314 352.365 270.805 350.305 270.181C348.007 269.486 357.492 267.343 357.492 267.343Z" fill="#E8505B"/>
<g opacity="0.6">
<path d="M364.698 270.151C364.856 269.218 365.374 268.35 366.121 267.769C366.867 267.187 367.787 266.88 368.73 266.955L368.735 270.076L364.698 270.151Z" fill="white"/>
</g>
<g opacity="0.6">
<path d="M352.874 268.548C352.874 268.548 349.55 269.51 349.965 270.057C350.38 270.604 363.129 270.587 368.752 270.087L368.733 269.838L353.863 269.984C353.863 269.984 353.524 268.575 352.874 268.548Z" fill="white"/>
</g>
<path d="M368.814 269.75C368.814 269.755 368.748 269.763 368.622 269.772C368.456 269.782 368.275 269.793 368.071 269.806C367.519 269.831 366.841 269.86 366.042 269.896C364.327 269.959 361.958 270.017 359.342 270.022C356.724 270.027 354.353 269.981 352.639 269.924C351.839 269.892 351.161 269.865 350.61 269.843C350.405 269.831 350.224 269.821 350.059 269.811C349.933 269.802 349.867 269.795 349.867 269.79C349.867 269.785 349.934 269.783 350.06 269.783C350.225 269.785 350.407 269.787 350.612 269.789C351.164 269.8 351.842 269.813 352.642 269.828C354.356 269.86 356.725 269.892 359.342 269.887C361.957 269.881 364.325 269.839 366.039 269.799C366.84 269.781 367.518 269.765 368.07 269.752C368.274 269.749 368.456 269.746 368.622 269.743C368.747 269.744 368.814 269.746 368.814 269.75Z" fill="#263238"/>
<path d="M353.864 270.2C353.823 270.205 353.79 269.72 353.484 269.232C353.185 268.737 352.768 268.49 352.791 268.455C352.799 268.421 353.278 268.632 353.599 269.16C353.926 269.686 353.897 270.208 353.864 270.2Z" fill="#263238"/>
<path d="M357.37 268.263C357.338 268.283 357.18 268.092 357.017 267.835C356.854 267.579 356.747 267.355 356.778 267.335C356.809 267.315 356.967 267.506 357.131 267.762C357.295 268.019 357.401 268.243 357.37 268.263Z" fill="#263238"/>
<path d="M358.273 267.784C358.248 267.811 358.071 267.694 357.879 267.521C357.686 267.349 357.55 267.186 357.575 267.159C357.6 267.131 357.776 267.248 357.969 267.421C358.161 267.593 358.297 267.756 358.273 267.784Z" fill="#263238"/>
<path d="M358.843 266.729C358.844 266.766 358.583 266.8 358.261 266.804C357.938 266.808 357.677 266.781 357.676 266.744C357.676 266.706 357.936 266.673 358.259 266.669C358.581 266.664 358.843 266.691 358.843 266.729Z" fill="#263238"/>
<path d="M359.038 265.986C359.051 266.019 358.767 266.148 358.389 266.176C358.011 266.206 357.71 266.122 357.717 266.087C357.724 266.049 358.019 266.07 358.378 266.041C358.737 266.014 359.026 265.948 359.038 265.986Z" fill="#263238"/>
<path d="M356.989 267.289C356.99 267.304 356.714 267.338 356.272 267.286C356.051 267.259 355.789 267.207 355.507 267.119C355.367 267.069 355.221 267.032 355.07 266.939C354.999 266.891 354.919 266.825 354.892 266.716C354.862 266.609 354.919 266.488 355 266.429C355.686 266.073 356.373 266.458 356.628 266.812C356.768 266.992 356.833 267.169 356.862 267.291C356.891 267.413 356.889 267.483 356.881 267.485C356.855 267.494 356.832 267.202 356.554 266.873C356.416 266.712 356.208 266.555 355.94 266.476C355.686 266.402 355.326 266.382 355.085 266.536C354.971 266.62 355.016 266.754 355.143 266.83C355.261 266.905 355.414 266.951 355.546 267.001C355.818 267.094 356.071 267.155 356.286 267.192C356.716 267.267 356.989 267.267 356.989 267.289Z" fill="#263238"/>
<path d="M356.804 267.325C356.794 267.333 356.687 267.15 356.72 266.827C356.737 266.669 356.795 266.481 356.916 266.303C357.042 266.144 357.205 265.924 357.513 265.936C357.679 265.958 357.761 266.147 357.734 266.267C357.722 266.392 357.665 266.501 357.613 266.588C357.506 266.767 357.386 266.912 357.275 267.023C357.05 267.243 356.872 267.327 356.865 267.314C356.852 267.296 357.008 267.185 357.205 266.958C357.303 266.844 357.409 266.7 357.504 266.527C357.603 266.375 357.669 266.103 357.489 266.07C357.309 266.053 357.127 266.232 357.017 266.375C356.904 266.531 356.842 266.698 356.814 266.842C356.76 267.133 356.828 267.32 356.804 267.325Z" fill="#263238"/>
<path d="M368.887 266.907C368.885 266.933 368.567 266.878 368.063 266.938C367.564 266.994 366.868 267.2 366.264 267.682C365.661 268.165 365.307 268.798 365.142 269.273C364.972 269.752 364.956 270.074 364.931 270.071C364.922 270.07 364.919 269.99 364.93 269.845C364.941 269.701 364.975 269.493 365.051 269.243C365.197 268.748 365.551 268.081 366.18 267.577C366.81 267.074 367.539 266.876 368.054 266.843C368.314 266.824 368.526 266.837 368.669 266.858C368.811 266.878 368.888 266.9 368.887 266.907Z" fill="#263238"/>
<path d="M367.724 261.912C367.761 261.911 367.806 262.938 367.824 264.205C367.841 265.472 367.826 266.5 367.788 266.501C367.751 266.502 367.706 265.475 367.688 264.207C367.671 262.94 367.686 261.912 367.724 261.912Z" fill="#263238"/>
<path d="M363.507 268.697C363.512 268.731 362.785 268.852 361.877 268.86C360.97 268.872 360.24 268.767 360.244 268.732C360.247 268.693 360.976 268.736 361.876 268.725C362.774 268.717 363.503 268.658 363.507 268.697Z" fill="#263238"/>
<path d="M365.695 268.69C365.722 268.718 365.636 268.845 365.561 269.013C365.485 269.179 365.447 269.329 365.408 269.326C365.372 269.326 365.35 269.149 365.438 268.957C365.525 268.764 365.671 268.663 365.695 268.69Z" fill="#263238"/>
<path d="M366.519 267.663C366.546 267.689 366.474 267.806 366.358 267.923C366.243 268.04 366.128 268.114 366.101 268.088C366.074 268.062 366.146 267.946 366.262 267.828C366.377 267.711 366.492 267.637 366.519 267.663Z" fill="#263238"/>
<path d="M367.698 267.192C367.691 267.23 367.542 267.229 367.378 267.287C367.213 267.341 367.096 267.432 367.067 267.407C367.037 267.386 367.13 267.227 367.334 267.159C367.538 267.089 367.71 267.158 367.698 267.192Z" fill="#263238"/>
<path d="M368.538 266.97C368.551 267.004 368.487 267.062 368.395 267.098C368.302 267.134 368.216 267.135 368.203 267.1C368.189 267.065 368.253 267.008 368.346 266.972C368.439 266.936 368.524 266.935 368.538 266.97Z" fill="#263238"/>
<path d="M319.625 70.5071L417.924 74.4681V97.136L318.171 93.4732L319.625 70.5071Z" fill="#E8505B"/>
<path d="M302.068 78.9335C302.068 78.9335 296.476 78.2662 295.15 80.6795C295.15 80.6795 296.281 83.7388 301.826 83.4816L302.068 78.9335Z" fill="#E8505B"/>
<path d="M301.576 77.8772L301.013 84.1495L307.754 84.8075C307.754 84.8075 310.521 85.0342 313.713 88.471C316.906 91.9085 318.171 93.4725 318.171 93.4725L319.625 70.5071L315.193 74.6586C314.316 75.4803 313.307 76.1454 312.209 76.6327C310.859 77.232 309.055 77.9523 308.007 78.043C305.631 78.2484 301.576 77.8772 301.576 77.8772Z" fill="#263238"/>
<path d="M417.924 74.468C417.924 74.468 423.852 77.8574 422.674 86.6293C421.658 94.1893 417.924 97.1359 417.924 97.1359V74.468Z" fill="#263238"/>
<path opacity="0.4" d="M319.154 78.8782L417.924 82.4899V88.6233L318.787 84.6815L319.154 78.8782Z" fill="white"/>
<g opacity="0.3">
<path d="M375.927 74.2478C377.465 74.3576 378.492 75.8458 379.844 76.5888C381.169 77.317 382.803 77.3149 384.121 78.0572C385.267 78.7025 386.078 79.9095 386.242 81.2142C386.407 82.5189 385.921 83.8896 384.971 84.7991C383.819 85.9026 381.955 86.5005 381.618 88.0595C381.469 88.7544 381.367 89.8126 380.664 89.7056C380.275 89.6469 380.089 89.2063 379.804 88.9336C379.199 88.357 378.152 88.6141 377.549 89.1921C376.945 89.7701 376.625 90.5762 376.164 91.2739C375.703 91.9716 374.973 92.614 374.14 92.5361C374.135 93.4669 374.166 94.5981 374.161 95.5288L369.312 95.2929L369.857 75.5625L375.927 74.2478Z" fill="black"/>
</g>
<path d="M391.713 267.699L391.679 261.739L380.513 261.73L380.469 270.451L381.162 270.496C384.243 270.67 396.84 271.161 398.899 270.538C401.199 269.843 391.713 267.699 391.713 267.699Z" fill="#E8505B"/>
<g opacity="0.6">
<path d="M384.508 270.508C384.349 269.575 383.831 268.707 383.085 268.126C382.338 267.544 381.419 267.237 380.475 267.312L380.47 270.433L384.508 270.508Z" fill="white"/>
</g>
<g opacity="0.6">
<path d="M396.331 268.904C396.331 268.904 399.655 269.866 399.24 270.413C398.825 270.961 386.077 270.944 380.454 270.443L380.472 270.194L395.342 270.341C395.342 270.341 395.681 268.931 396.331 268.904Z" fill="white"/>
</g>
<path d="M380.391 270.108C380.391 270.113 380.457 270.12 380.583 270.129C380.749 270.139 380.93 270.15 381.134 270.163C381.686 270.188 382.364 270.217 383.164 270.253C384.878 270.317 387.246 270.374 389.864 270.38C392.482 270.385 394.852 270.338 396.566 270.281C397.366 270.249 398.044 270.222 398.595 270.2C398.8 270.188 398.981 270.178 399.146 270.168C399.272 270.159 399.338 270.152 399.338 270.147C399.338 270.142 399.272 270.14 399.146 270.14C398.98 270.142 398.798 270.145 398.593 270.147C398.041 270.157 397.363 270.17 396.563 270.185C394.849 270.217 392.48 270.249 389.864 270.244C387.248 270.238 384.88 270.196 383.166 270.157C382.365 270.138 381.687 270.123 381.136 270.109C380.931 270.106 380.749 270.103 380.583 270.101C380.458 270.101 380.392 270.103 380.391 270.108Z" fill="#263238"/>
<path d="M395.342 270.557C395.383 270.562 395.415 270.077 395.722 269.589C396.02 269.094 396.438 268.847 396.415 268.812C396.407 268.779 395.928 268.989 395.607 269.518C395.279 270.043 395.308 270.565 395.342 270.557Z" fill="#263238"/>
<path d="M391.836 268.619C391.867 268.639 392.025 268.448 392.189 268.192C392.352 267.935 392.459 267.711 392.427 267.691C392.396 267.671 392.238 267.862 392.075 268.119C391.911 268.375 391.805 268.6 391.836 268.619Z" fill="#263238"/>
<path d="M390.933 268.14C390.958 268.167 391.134 268.051 391.327 267.878C391.52 267.705 391.656 267.543 391.631 267.515C391.606 267.487 391.43 267.604 391.237 267.777C391.044 267.95 390.908 268.112 390.933 268.14Z" fill="#263238"/>
<path d="M390.363 267.086C390.362 267.123 390.623 267.157 390.945 267.161C391.267 267.165 391.528 267.137 391.529 267.101C391.53 267.063 391.269 267.03 390.947 267.026C390.625 267.021 390.363 267.048 390.363 267.086Z" fill="#263238"/>
<path d="M390.167 266.342C390.154 266.375 390.438 266.504 390.817 266.532C391.195 266.562 391.495 266.478 391.488 266.443C391.482 266.405 391.186 266.426 390.827 266.397C390.468 266.371 390.179 266.304 390.167 266.342Z" fill="#263238"/>
<path d="M392.216 267.646C392.216 267.661 392.491 267.695 392.934 267.643C393.155 267.617 393.416 267.564 393.698 267.476C393.838 267.426 393.984 267.389 394.136 267.297C394.207 267.249 394.286 267.182 394.314 267.074C394.343 266.966 394.286 266.846 394.205 266.787C393.52 266.431 392.833 266.816 392.578 267.17C392.437 267.35 392.373 267.527 392.343 267.648C392.314 267.77 392.316 267.84 392.325 267.842C392.35 267.851 392.374 267.559 392.652 267.231C392.789 267.069 392.998 266.913 393.265 266.833C393.519 266.759 393.879 266.739 394.12 266.893C394.234 266.977 394.19 267.112 394.063 267.187C393.945 267.263 393.792 267.309 393.659 267.358C393.387 267.451 393.134 267.512 392.92 267.549C392.49 267.624 392.216 267.624 392.216 267.646Z" fill="#263238"/>
<path d="M392.402 267.681C392.412 267.689 392.518 267.507 392.486 267.184C392.469 267.025 392.411 266.837 392.29 266.659C392.163 266.5 392.001 266.28 391.693 266.292C391.527 266.314 391.445 266.503 391.471 266.623C391.484 266.749 391.541 266.857 391.593 266.944C391.699 267.123 391.82 267.269 391.931 267.379C392.156 267.599 392.333 267.684 392.341 267.67C392.354 267.652 392.198 267.541 392.001 267.314C391.902 267.201 391.796 267.056 391.701 266.883C391.602 266.732 391.535 266.459 391.716 266.426C391.896 266.409 392.078 266.589 392.188 266.732C392.301 266.887 392.363 267.055 392.391 267.198C392.445 267.49 392.378 267.677 392.402 267.681Z" fill="#263238"/>
<path d="M380.318 267.265C380.32 267.29 380.638 267.235 381.142 267.295C381.642 267.351 382.337 267.557 382.942 268.039C383.545 268.523 383.899 269.155 384.064 269.63C384.234 270.109 384.25 270.431 384.275 270.428C384.284 270.427 384.287 270.347 384.276 270.203C384.265 270.058 384.231 269.85 384.155 269.601C384.009 269.105 383.656 268.438 383.026 267.934C382.396 267.431 381.667 267.233 381.152 267.2C380.892 267.182 380.681 267.194 380.537 267.215C380.394 267.235 380.316 267.256 380.318 267.265Z" fill="#263238"/>
<path d="M381.482 262.269C381.444 262.268 381.4 263.295 381.382 264.562C381.364 265.829 381.38 266.857 381.417 266.858C381.455 266.859 381.5 265.831 381.517 264.564C381.535 263.296 381.519 262.269 381.482 262.269Z" fill="#263238"/>
<path d="M385.699 269.054C385.694 269.088 386.421 269.209 387.328 269.217C388.236 269.229 388.965 269.124 388.962 269.088C388.958 269.049 388.229 269.093 387.33 269.082C386.431 269.073 385.703 269.014 385.699 269.054Z" fill="#263238"/>
<path d="M383.51 269.047C383.483 269.074 383.57 269.202 383.644 269.37C383.721 269.536 383.759 269.686 383.797 269.683C383.833 269.683 383.855 269.506 383.768 269.314C383.68 269.12 383.534 269.02 383.51 269.047Z" fill="#263238"/>
<path d="M382.687 268.02C382.66 268.046 382.732 268.162 382.847 268.28C382.963 268.397 383.078 268.471 383.104 268.445C383.131 268.418 383.059 268.302 382.944 268.185C382.828 268.068 382.713 267.993 382.687 268.02Z" fill="#263238"/>
<path d="M381.507 267.549C381.515 267.587 381.663 267.586 381.828 267.644C381.993 267.698 382.109 267.789 382.139 267.764C382.169 267.744 382.075 267.584 381.871 267.516C381.667 267.446 381.496 267.514 381.507 267.549Z" fill="#263238"/>
<path d="M380.667 267.327C380.654 267.361 380.717 267.419 380.81 267.455C380.903 267.491 380.989 267.492 381.002 267.457C381.016 267.422 380.952 267.365 380.859 267.329C380.767 267.293 380.681 267.292 380.667 267.327Z" fill="#263238"/>
<path d="M351.434 100.619C351.434 100.619 334.113 107.942 333.56 107.665C333.088 107.429 332.606 94.0031 332.606 94.0031L323.962 93.6858C323.962 93.6858 322.347 114.129 327.539 117.443C334.636 121.973 351.821 112.544 351.821 112.544L351.434 100.619Z" fill="#FFBE9D"/>
<path d="M360.153 95.8207C360.134 93.6574 360.114 91.7726 360.114 91.7726C360.114 91.7726 355.744 91.31 355.479 86.9765C355.213 82.6429 355.479 72.6491 355.479 72.6491L363.438 68.7576L372.194 75.3911L371.27 96.0233C371.137 98.9954 368.689 101.336 365.714 101.336C362.662 101.336 360.18 98.8728 360.153 95.8207Z" fill="#FFBE9D"/>
<path d="M356.414 79.9328C356.414 80.2388 356.663 80.4874 356.969 80.4874C357.275 80.4874 357.523 80.2388 357.523 79.9328C357.523 79.6268 357.275 79.3782 356.969 79.3782C356.663 79.3782 356.414 79.6268 356.414 79.9328Z" fill="#263238"/>
<path d="M355.877 79.3286C355.949 79.4001 356.359 79.0516 356.955 79.0198C357.552 78.9787 358.001 79.2755 358.063 79.1954C358.093 79.16 358.019 79.0275 357.823 78.893C357.63 78.7591 357.305 78.6365 356.932 78.6592C356.561 78.6819 356.252 78.8427 356.077 78.9992C355.9 79.1565 355.842 79.2967 355.877 79.3286Z" fill="#263238"/>
<path d="M362.842 79.9328C362.842 80.2388 363.091 80.4874 363.397 80.4874C363.703 80.4874 363.951 80.2388 363.951 79.9328C363.951 79.6268 363.703 79.3782 363.397 79.3782C363.09 79.3782 362.842 79.6268 362.842 79.9328Z" fill="#263238"/>
<path d="M362.497 79.3286C362.569 79.4001 362.979 79.0516 363.575 79.0198C364.172 78.9787 364.621 79.2755 364.683 79.1954C364.713 79.16 364.639 79.0275 364.443 78.893C364.25 78.7591 363.925 78.6365 363.553 78.6592C363.181 78.6819 362.873 78.8427 362.698 78.9992C362.52 79.1565 362.462 79.2967 362.497 79.3286Z" fill="#263238"/>
<path d="M360.343 84.3726C360.341 84.4236 359.965 84.4555 359.358 84.4654C359.283 84.4661 359.194 84.4704 359.087 84.4442C358.98 84.4222 358.849 84.3322 358.798 84.2019C358.702 83.9412 358.802 83.7231 358.85 83.5396C358.977 83.1309 359.104 82.7222 359.237 82.2944C359.805 80.5335 360.344 79.1317 360.441 79.1629C360.538 79.194 360.156 80.6461 359.588 82.407C359.446 82.832 359.31 83.2372 359.174 83.643C359.102 83.8336 359.052 84.0015 359.082 84.0872C359.093 84.1622 359.21 84.1941 359.368 84.2033C359.972 84.2614 360.345 84.3216 360.343 84.3726Z" fill="#263238"/>
<path d="M363.21 84.6674C363.225 85.1618 363.985 85.516 364.907 85.5372C365.828 85.5563 366.596 85.2355 366.623 84.7418C366.65 84.2516 365.892 83.7713 364.927 83.7515C363.963 83.7296 363.194 84.1765 363.21 84.6674Z" fill="#EB996E"/>
<path d="M362.316 84.9372C362.92 84.5362 360.647 85.9309 359.429 85.9309C359.429 85.9309 360.18 87.0111 361.409 86.4926C362.683 85.955 362.316 84.9372 362.316 84.9372Z" fill="white"/>
<path d="M359.909 91.7726C359.909 91.7726 362.827 91.8052 365.651 89.8333C365.651 89.8333 364.349 93.0151 360.003 92.8359L359.909 91.7726Z" fill="#EB996E"/>
<path d="M378.602 78.9971L378.626 79.7685C378.532 78.9688 378.31 77.1449 378.18 76.649C375.816 67.6108 367.872 65.9264 366.301 65.9264C364.616 65.9264 361.667 64.9999 357.37 69.4652C353.074 73.9305 355.427 78.7329 355.427 78.7329L356.148 78.0671L362.488 76.4309C361.986 74.721 362.725 72.5988 363.142 71.6093L363.184 71.5717C364.447 78.0593 371.595 78.7336 371.595 78.7336L371.034 90.771C379.472 88.9669 378.602 78.9971 378.602 78.9971Z" fill="#263238"/>
<path d="M378.384 78.5585C378.28 77.5236 379.128 76.5603 380.129 76.2784C381.13 75.9965 382.215 76.2727 383.138 76.7515C384.067 77.2332 384.941 78.0032 385.138 79.031C385.378 80.2833 384.566 81.474 383.763 82.4649C383.268 83.0769 382.747 83.6882 382.08 84.1054C381.413 84.5226 380.566 84.7231 379.826 84.4532C379.2 84.2244 378.728 83.691 378.4 83.1095C377.268 81.1021 377.76 78.3233 379.512 76.8266" fill="#263238"/>
<path d="M362.78 68.2178C362.791 68.334 361.978 68.4388 360.771 68.8837C359.57 69.3186 357.972 70.1693 356.649 71.5902C355.325 73.0125 354.591 74.6665 354.243 75.8961C353.886 77.1321 353.839 77.9503 353.723 77.9474C353.637 77.9517 353.494 77.1137 353.736 75.7757C353.968 74.4511 354.677 72.6265 356.109 71.0873C357.541 69.5495 359.31 68.7115 360.615 68.3857C361.932 68.0493 362.778 68.1328 362.78 68.2178Z" fill="#263238"/>
<path d="M372.723 84.1913C372.698 83.4695 372.696 82.7257 372.956 82.0514C373.216 81.3771 373.796 80.78 374.515 80.7056C375.342 80.6192 376.143 81.307 376.274 82.1279C376.406 82.9489 375.927 83.8038 375.203 84.2118C374.478 84.6198 373.559 84.6078 372.796 84.2791" fill="#FFBE9D"/>
<path d="M374 83.8515C373.99 83.7962 374.169 83.7353 374.376 83.5519C374.581 83.3762 374.813 83.0461 374.823 82.6537C374.828 82.2606 374.609 81.922 374.41 81.7386C374.211 81.5473 374.034 81.4786 374.047 81.4241C374.052 81.3801 374.272 81.3546 374.567 81.5296C374.852 81.6939 375.196 82.1048 375.191 82.6608C375.174 83.2161 374.815 83.6128 374.523 83.7665C374.223 83.9294 374.004 83.8947 374 83.8515Z" fill="#EB996E"/>
<path d="M360.714 79.6615C360.701 79.6615 360.692 79.5871 360.688 79.4426C360.68 79.2988 360.694 79.0842 360.751 78.8143C360.856 78.2831 361.183 77.4869 361.976 76.8579C362.742 76.2282 364.044 75.8521 365.325 76.3118C366.595 76.7304 367.706 78.0791 367.691 79.6608C367.706 81.2432 366.595 82.5926 365.325 83.0112C364.044 83.4709 362.742 83.0948 361.976 82.4651C361.183 81.8361 360.856 81.0399 360.751 80.5087C360.694 80.2395 360.68 80.0242 360.688 79.8811C360.692 79.7359 360.702 79.6615 360.714 79.6615C360.75 79.6601 360.745 79.964 360.889 80.4732C361.032 80.9733 361.38 81.7008 362.134 82.2575C362.863 82.8157 364.057 83.1238 365.209 82.6917C366.351 82.2951 367.334 81.0789 367.322 79.6608C367.334 78.2434 366.351 77.0279 365.209 76.6313C364.057 76.1992 362.863 76.5073 362.134 77.0655C361.38 77.6222 361.032 78.3497 360.889 78.8498C360.746 79.359 360.75 79.6629 360.714 79.6615Z" fill="#263238"/>
<path d="M352.885 79.6615C352.872 79.6615 352.864 79.5871 352.859 79.4426C352.851 79.2988 352.865 79.0842 352.922 78.8143C353.027 78.2831 353.354 77.4869 354.147 76.8579C354.913 76.2282 356.215 75.8521 357.496 76.3118C358.766 76.7304 359.877 78.0791 359.862 79.6608C359.878 81.2432 358.766 82.5926 357.496 83.0112C356.215 83.4709 354.913 83.0948 354.147 82.4651C353.354 81.8361 353.027 81.0399 352.922 80.5087C352.865 80.2395 352.852 80.0242 352.859 79.8811C352.863 79.7359 352.872 79.6615 352.885 79.6615C352.921 79.6601 352.916 79.964 353.061 80.4732C353.204 80.9733 353.551 81.7008 354.305 82.2575C355.035 82.8157 356.228 83.1238 357.38 82.6917C358.522 82.2951 359.506 81.0789 359.493 79.6608C359.506 78.2434 358.522 77.0279 357.38 76.6313C356.228 76.1992 355.035 76.5073 354.305 77.0655C353.551 77.6222 353.204 78.3497 353.061 78.8498C352.916 79.359 352.921 79.6629 352.885 79.6615Z" fill="#263238"/>
<path d="M359.677 79.7686C359.677 79.6666 359.955 79.5845 360.299 79.5845C360.642 79.5845 360.921 79.6673 360.921 79.7686C360.921 79.8706 360.642 79.9528 360.299 79.9528C359.956 79.9528 359.677 79.8706 359.677 79.7686Z" fill="#263238"/>
<path d="M367.389 80.3711C367.409 80.2712 368.772 80.4561 370.433 80.784C372.095 81.112 373.426 81.4591 373.406 81.559C373.386 81.6588 372.023 81.4739 370.362 81.146C368.701 80.818 367.369 80.471 367.389 80.3711Z" fill="#263238"/>
<path d="M347.759 150.756L353.183 265.313L370.57 265.679L366.063 166.681L377.835 265.259L395.594 265.702L381.692 149.5" fill="#493756"/>
<path d="M361.374 265.485C361.272 265.49 360.022 239.887 358.581 208.308C357.141 176.717 356.055 151.112 356.157 151.107C356.259 151.102 357.509 176.7 358.95 208.291C360.39 239.871 361.476 265.481 361.374 265.485Z" fill="white"/>
<path d="M387.33 264.563C387.228 264.576 384.103 239.712 380.35 209.037C376.596 178.35 373.635 153.472 373.735 153.46C373.837 153.447 376.961 178.305 380.716 208.992C384.469 239.668 387.431 264.55 387.33 264.563Z" fill="white"/>
<path d="M386.125 124.083L395.042 112.939L384.091 101.9L384.09 101.902C381.973 99.7051 379.494 98.0802 376.528 97.0071C375.202 96.5268 373.79 96.2343 372.195 96.1309V95.2469L367.389 95.3425C367.389 95.3425 367.147 96.0947 366.881 96.9532C366.624 97.6417 366.503 99.0378 366.192 99.0371C365.852 99.0364 365.403 97.6417 364.932 96.9419C364.494 96.0643 364.11 95.2894 364.11 95.2894L359.677 95.0754V96.1925C357.907 96.434 354.808 96.9816 351.319 98.6893V98.6879L334.967 105.323L340.206 119.777L351.302 116.043C351.228 116.242 351.149 116.441 351.091 116.647C350.638 118.27 350.786 120.054 351.501 121.58C351.846 122.316 352.323 122.987 352.896 123.564L352.683 135.222L347.76 150.754L381.693 151.106L377.836 134.338L379.593 117.723L386.125 124.083Z" fill="#BCB4DF"/>
<path d="M364.002 95.456C364.051 95.4737 363.957 95.8632 363.767 96.4788C363.65 96.8379 363.534 97.1935 363.417 97.5533C363.344 97.7594 363.284 97.9542 363.189 98.1951C363.133 98.3119 363.063 98.4564 362.889 98.5521C362.708 98.6533 362.484 98.5861 362.37 98.5124C360.712 97.4081 359.458 96.4582 359.509 96.3718C359.561 96.2826 360.942 97.117 362.552 98.1915C362.809 98.4345 362.936 97.8033 363.099 97.4371C363.241 97.0865 363.382 96.7394 363.524 96.3895C363.774 95.796 363.954 95.4382 364.002 95.456Z" fill="#263238"/>
<path d="M372.592 96.362C372.669 96.413 371.569 97.9635 369.687 99.3171C369.603 99.3766 369.52 99.4361 369.442 99.4914L369.29 99.599L369.184 99.4439C367.957 97.6398 367.504 95.9639 367.589 95.9441C367.689 95.9051 368.281 97.4903 369.488 99.2364L369.231 99.1896C369.308 99.1351 369.389 99.077 369.471 99.0182C371.306 97.7007 372.508 96.289 372.592 96.362Z" fill="#263238"/>
<path d="M364.786 150.968C364.774 150.968 364.759 150.787 364.744 150.441C364.731 150.059 364.715 149.556 364.694 148.927C364.679 147.611 364.681 145.708 364.722 143.357C364.805 138.655 365.027 132.164 365.305 124.997C365.574 117.846 365.818 111.375 365.995 106.642C366.056 104.323 366.105 102.433 366.141 101.079C366.149 100.45 366.155 99.9473 366.16 99.5655C366.169 99.2192 366.18 99.0378 366.192 99.0371C366.205 99.0371 366.219 99.2184 366.235 99.5641C366.248 99.9459 366.264 100.45 366.284 101.079C366.299 102.394 366.298 104.297 366.257 106.648C366.173 111.35 365.951 117.842 365.674 125.011C365.405 132.159 365.161 138.631 364.983 143.363C364.923 145.681 364.873 147.572 364.838 148.926C364.829 149.554 364.823 150.057 364.818 150.439C364.81 150.786 364.799 150.968 364.786 150.968Z" fill="#263238"/>
<path d="M369.025 107.587C369.012 107.543 369.321 107.497 369.582 107.834C369.7 107.995 369.799 108.247 369.724 108.539C369.653 108.837 369.357 109.071 369.036 109.114C368.716 109.167 368.365 109.03 368.208 108.767C368.051 108.51 368.073 108.24 368.138 108.051C368.289 107.652 368.596 107.606 368.597 107.652C368.625 107.7 368.434 107.82 368.39 108.118C368.369 108.261 368.389 108.444 368.49 108.576C368.585 108.708 368.777 108.779 368.981 108.75C369.186 108.717 369.348 108.594 369.399 108.439C369.457 108.283 369.423 108.103 369.361 107.973C369.231 107.701 369.013 107.642 369.025 107.587Z" fill="#263238"/>
<path d="M369.144 119.318C369.137 119.273 369.398 119.234 369.634 119.516C369.741 119.652 369.839 119.868 369.785 120.127C369.737 120.393 369.479 120.617 369.197 120.659C368.917 120.714 368.592 120.591 368.465 120.337C368.339 120.088 368.4 119.848 368.488 119.696C368.688 119.365 368.983 119.416 368.964 119.463C368.972 119.516 368.793 119.571 368.724 119.806C368.636 120.043 368.777 120.363 369.134 120.295C369.491 120.242 369.537 119.881 369.417 119.659C369.309 119.435 369.132 119.372 369.144 119.318Z" fill="#263238"/>
<path d="M342.908 118.689C342.858 118.706 342.542 117.915 342.044 116.633C341.5 115.251 340.825 113.534 340.077 111.637C339.297 109.751 338.592 108.047 338.024 106.674C337.492 105.406 337.17 104.617 337.218 104.595C337.262 104.575 337.668 105.324 338.262 106.567C338.856 107.81 339.632 109.549 340.419 111.499C341.206 113.448 341.854 115.238 342.289 116.545C342.726 117.852 342.955 118.673 342.908 118.689Z" fill="#263238"/>
<path d="M393.664 111.436C393.736 111.507 391.528 113.911 388.731 116.804C385.933 119.698 383.606 121.987 383.532 121.916C383.459 121.845 385.667 119.443 388.465 116.548C391.263 113.654 393.591 111.366 393.664 111.436Z" fill="#263238"/>
<path d="M391.711 124.354L396.589 147.969L374.102 152.615C368.501 153.772 363.022 150.169 361.865 144.567L361.177 141.237C360.019 135.635 363.623 130.156 369.224 128.999L391.711 124.354Z" fill="#E8505B"/>
<path d="M409.976 120.581L373.793 128.055C373.488 126.577 374.438 125.132 375.916 124.827L406.748 118.458C408.225 118.152 409.671 119.103 409.976 120.581Z" fill="#E8505B"/>
<g opacity="0.4">
<path d="M392.21 124.24C392.221 124.29 391.481 124.49 390.275 124.775C389.069 125.06 387.396 125.427 385.545 125.811C383.692 126.195 382.011 126.523 380.79 126.742C379.569 126.961 378.809 127.071 378.797 127.022C378.787 126.972 379.527 126.771 380.733 126.487C381.939 126.203 383.612 125.835 385.463 125.451C387.315 125.067 388.996 124.74 390.217 124.521C391.437 124.301 392.199 124.191 392.21 124.24Z" fill="black"/>
</g>
<g opacity="0.3">
<path d="M393.57 133.548C393.488 132.99 393.406 132.431 393.324 131.873C389.085 135.278 385.224 139.139 381.684 143.265C380.675 144.443 379.675 145.669 379.112 147.114C378.551 148.559 378.486 150.279 379.305 151.596L388.71 149.5L393.57 133.548Z" fill="black"/>
</g>
<path d="M402.97 138.663C406.54 134.558 406.519 128.444 402.921 124.363L393.88 114.113L386.707 122.999C387.024 123.21 394.441 132.018 394.441 132.018L383.112 146.137C381.367 148.312 380.417 151.378 381.324 154.014L382.837 157.181C383.925 159.459 386.632 160.452 388.935 159.419L391.648 158.202C392.318 157.901 392.451 157.007 391.898 156.525L391.238 155.949C390.753 155.526 390.115 155.323 389.475 155.388L386.02 155.736L385.863 155.1L402.97 138.663Z" fill="#FFBE9D"/>
<path d="M392.197 156.992C392.202 157.044 391.779 157.149 391.109 157.401C390.436 157.621 389.51 158.068 388.334 158.056C387.71 158.016 387.215 157.671 386.87 157.324C386.517 156.972 386.277 156.592 386.119 156.257C385.796 155.582 385.821 155.098 385.862 155.101C385.922 155.092 385.989 155.535 386.349 156.135C386.526 156.434 386.772 156.773 387.105 157.079C387.432 157.385 387.867 157.659 388.352 157.687C389.388 157.705 390.336 157.315 391.032 157.153C391.731 156.961 392.192 156.942 392.197 156.992Z" fill="#EB996E"/>
<path d="M391.237 155.95C391.243 156.047 390.124 156.47 388.634 156.868C387.874 157.053 387.096 156.959 386.64 156.682C386.17 156.417 386.032 156.09 386.071 156.071C386.116 156.035 386.316 156.276 386.752 156.446C387.184 156.63 387.839 156.676 388.556 156.507C389.993 156.123 391.227 155.842 391.237 155.95Z" fill="#EB996E"/>
<path d="M9.511 142.226C9.18446 142.137 2.74434 151.599 2.53042 159.733C2.50988 160.508 2.54814 161.322 2.62039 162.124C2.87822 164.972 3.59505 167.759 4.64762 170.418C10.0918 184.166 15.706 200.472 15.7981 204.183C16.0836 215.628 21.0305 267.009 21.0305 267.009L31.8885 267.292L33.6197 204.188L29.7642 141.705L9.511 142.226Z" fill="#FFBE9D"/>
<path d="M30.2458 150.343C30.2458 150.343 44.9288 198.001 44.0037 213.392C43.0786 228.784 31.8955 267.078 31.8955 267.078L30.2458 150.343Z" fill="#EB996E"/>
<path d="M5.45915 142C5.45915 142 -2.65348 150.133 3.00625 162.939C8.6196 175.642 4.60053 191.152 4.60053 191.152C4.60053 191.152 11.7737 186.963 16.8622 188.814C22.6512 190.921 26.5073 193.437 33.6946 190.995C41.1973 188.444 47.1556 187.009 54 192L43.4057 163.22L37.2836 144.895L5.45915 142Z" fill="#5B67D4"/>
<path d="M47.9596 129.978C46.1654 129.815 42.9404 113.375 42.9404 113.375L29.7003 117.802C29.7003 117.802 29.3008 120.303 37.2752 136.242C37.2752 136.242 41.9735 144.596 47.8385 144.216L47.9596 129.978Z" fill="#EB996E"/>
<path d="M28.8957 97.6525C28.8957 97.6525 38.9249 96.6629 43.5914 108.848L43.5949 108.845L43.6367 108.963C43.7217 109.188 43.8025 109.423 43.8832 109.657L47.7882 120.641L37.0372 126.005L37.011 127.222L38.1854 149.262L3.88535 142.777L6.65349 138.792C9.3161 135.115 8.71968 129.954 7.62673 125.546L7.25416 124.045L2.60681 126.471C2.60681 126.471 -0.608995 120.128 0.102875 111.153C0.1135 111.02 0.124831 110.889 0.136165 110.759C0.892659 102.429 8.19481 96.2486 16.5403 96.8145L28.8957 97.6525Z" fill="#B694ED"/>
<g opacity="0.3">
<path d="M12.4519 110.358C14.3389 117.503 17.8302 124.649 21.3464 131.149C21.6842 131.773 22.4308 132.485 22.9699 132.023C23.3779 131.674 23.1597 131.015 22.9125 130.538C19.4254 123.812 15.939 117.085 12.4519 110.358Z" fill="black"/>
</g>
<path d="M36.161 114.249C36.2092 114.232 36.4698 114.871 36.8523 115.917C37.227 116.969 37.7554 118.399 38.2562 120.04C38.4893 120.866 38.6175 121.709 38.5162 122.471C38.4234 123.232 38.1599 123.868 37.9113 124.372C37.3956 125.375 36.9763 125.923 36.9416 125.903C36.8877 125.874 37.2313 125.269 37.6747 124.264C37.8872 123.759 38.111 123.142 38.1783 122.435C38.2534 121.73 38.1273 120.944 37.9006 120.14C37.4147 118.589 36.9756 117.185 36.6044 116C36.2857 114.932 36.1121 114.264 36.161 114.249Z" fill="#263238"/>
<path d="M33.3407 77.7527C33.3131 80.5973 34.8849 83.4044 37.3243 84.8678C37.981 85.2617 38.6964 85.5663 39.2977 86.0408C39.8991 86.5154 40.3893 87.2181 40.3574 87.9831C40.3078 89.1794 39.0966 89.9395 38.0305 90.4849C39.2007 91.5821 39.2134 93.6752 38.0567 94.7866C36.9 95.8979 34.8091 95.8016 33.7593 94.5875C33.7005 96.8315 31.9063 98.8191 29.7481 99.4346C27.5898 100.05 25.1985 99.4311 23.3717 98.127C21.5449 96.8237 20.2338 94.9006 19.3123 92.8542" fill="#263238"/>
<path d="M39.1515 82.3205C39.1664 82.3106 39.2911 82.4792 39.2868 82.8383C39.2818 83.1847 39.0963 83.7287 38.5516 84.1005C38.0054 84.4731 37.1448 84.5008 36.3912 84.1282C35.6219 83.7563 35.029 83.0182 34.5686 82.2235C33.6209 80.6212 33.2023 78.963 33.0578 77.7695C32.9104 76.5689 32.9876 75.8223 33.0308 75.8237C33.0932 75.8223 33.1123 76.5632 33.3248 77.7284C33.5338 78.8887 33.9821 80.4817 34.8973 82.0294C35.3435 82.8015 35.8861 83.4751 36.5491 83.8144C37.205 84.1586 37.941 84.1551 38.4092 83.8725C38.8852 83.5884 39.0941 83.1294 39.1395 82.8256C39.1876 82.5103 39.1196 82.3297 39.1515 82.3205Z" fill="#263238"/>
<path d="M27.8227 98.224C27.9757 95.504 28.1676 92.8017 28.1676 92.8017C28.1676 92.8017 32.5125 92.342 32.7767 88.0333C33.0402 83.7245 32.7767 73.7881 32.7767 73.7881L24.8626 69.9192L16.1572 76.5144L17.0462 98.1418C17.1595 100.906 19.3461 103.137 22.1079 103.306C25.0907 103.487 27.6548 101.209 27.8227 98.224Z" fill="#FFBE9D"/>
<path d="M31.9119 81.0306C31.9119 81.3351 31.6647 81.5823 31.3601 81.5823C31.0556 81.5823 30.8083 81.3351 30.8083 81.0306C30.8083 80.726 31.0556 80.4788 31.3601 80.4788C31.6647 80.4788 31.9119 80.726 31.9119 81.0306Z" fill="#263238"/>
<path d="M32.4461 80.4292C32.3746 80.5007 31.9673 80.1544 31.3737 80.1225C30.7801 80.0821 30.3339 80.3768 30.2723 80.2967C30.2418 80.2613 30.3155 80.1303 30.511 79.9964C30.7022 79.8632 31.0259 79.7421 31.3957 79.7641C31.7654 79.786 32.0714 79.9468 32.2457 80.1019C32.4234 80.2585 32.4801 80.3973 32.4461 80.4292Z" fill="#263238"/>
<path d="M25.5213 81.0306C25.5213 81.3351 25.2741 81.5823 24.9695 81.5823C24.6649 81.5823 24.4177 81.3351 24.4177 81.0306C24.4177 80.726 24.6649 80.4788 24.9695 80.4788C25.2741 80.4788 25.5213 80.726 25.5213 81.0306Z" fill="#263238"/>
<path d="M25.8641 80.4292C25.7932 80.5007 25.3853 80.1544 24.7917 80.1225C24.1988 80.0821 23.7518 80.3768 23.6902 80.2967C23.6598 80.2613 23.7334 80.1303 23.9289 79.9964C24.1202 79.8632 24.4439 79.7421 24.8136 79.7641C25.1834 79.7867 25.4894 79.9468 25.6636 80.1019C25.8407 80.2585 25.8981 80.3973 25.8641 80.4292Z" fill="#263238"/>
<path d="M28.0056 85.4061C28.0042 85.375 28.374 85.3318 28.9725 85.2885C29.122 85.2808 29.2764 85.2623 29.3118 85.1504C29.3564 85.0357 29.2983 84.86 29.2318 84.6737C29.0972 84.27 28.964 83.8698 28.8245 83.4504C28.5419 82.5806 28.2982 81.7887 28.1324 81.2121C27.9667 80.6355 27.8796 80.2743 27.9093 80.2644C27.9391 80.2545 28.0814 80.5987 28.2862 81.1618C28.4909 81.7256 28.7593 82.5091 29.0419 83.3796C29.1758 83.8003 29.3033 84.2027 29.4315 84.6085C29.4832 84.7906 29.5746 84.9995 29.4853 85.2255C29.3671 85.4685 29.1057 85.4479 28.9782 85.45C28.3789 85.4522 28.0071 85.438 28.0056 85.4061Z" fill="#263238"/>
<path d="M26.0448 86.0061C25.4441 85.6073 27.7037 86.9942 28.9156 86.9942C28.9156 86.9942 28.1683 88.0688 26.9472 87.5531C25.6793 87.0183 26.0448 86.0061 26.0448 86.0061Z" fill="white"/>
<path d="M28.1676 92.8018C28.1676 92.8018 25.2656 92.8344 22.4585 90.8738C22.4585 90.8738 23.7526 94.0372 28.0734 93.8594L28.1676 92.8018Z" fill="#EB996E"/>
<path d="M30.962 70.6227C26.6901 66.1829 23.7576 67.1044 22.0824 67.1044C20.8938 67.1044 16.039 68.0784 12.7488 72.5005L12.7481 72.497C11.5552 73.7379 9.85597 77.7747 9.66047 79.1999C9.46568 80.6257 9.71005 82.0721 9.70013 83.5115C9.69022 84.9508 9.36155 86.4999 8.28418 87.454C7.60206 88.0582 6.64441 88.4067 6.23428 89.2206C5.75546 90.1712 6.29449 91.3937 7.18132 91.9824C8.06885 92.571 9.19368 92.6595 10.2576 92.6149C10.009 94.7392 11.6565 96.9088 13.7695 97.2389C14.8561 97.4089 15.9724 97.0752 16.8578 96.4285C17.5746 97.1276 18.3368 97.7907 19.1521 98.4034C19.3299 92.1325 19.1917 85.8532 18.7575 79.5944C21.6326 79.0844 26.7893 77.5339 27.6867 72.9276C28.8349 75.5513 30.5781 76.98 32.895 78.9668C32.8936 78.9668 35.2347 75.0625 30.962 70.6227Z" fill="#263238"/>
<path d="M19.0728 77.9289C19.0749 77.8729 19.7535 77.8743 20.8351 77.9346C21.9025 77.9728 23.4382 78.0904 24.9228 77.4564C25.6581 77.1455 26.2502 76.6447 26.6285 76.0731C27.011 75.5014 27.2072 74.893 27.312 74.3759C27.5125 73.3311 27.414 72.6518 27.482 72.6483C27.5167 72.6384 27.7172 73.312 27.5777 74.4212C27.5019 74.9695 27.3234 75.6289 26.9225 76.2657C26.5272 76.9039 25.8685 77.4734 25.0751 77.807C23.4686 78.487 21.8777 78.3078 20.8145 78.2044C19.7322 78.0741 19.0713 77.9785 19.0728 77.9289Z" fill="#263238"/>
<path d="M7.85141 88.4804C7.85495 88.4414 8.12483 88.5307 8.5562 88.3784C8.96774 88.2303 9.5592 87.777 9.72424 86.9816C9.9084 86.1854 9.64702 85.2051 9.19936 84.1922C8.98545 83.6772 8.73824 83.1304 8.58807 82.5148C8.44216 81.9 8.39399 81.2384 8.46766 80.5754C8.60578 79.2431 9.13419 78.0602 9.75256 77.1046C10.3773 76.1477 11.0856 75.4032 11.6983 74.8111C12.3146 74.2203 12.8444 73.7811 13.2135 73.4815C13.5839 73.184 13.7978 73.0303 13.8148 73.0494C13.858 73.0962 13.0697 73.7967 11.8889 75.0016C11.3081 75.6108 10.6359 76.3595 10.0487 77.2937C9.46924 78.2231 8.97624 79.3614 8.84732 80.6144C8.7779 81.2384 8.82182 81.8547 8.95145 82.4277C9.08603 83.0008 9.31765 83.537 9.52448 84.059C9.95869 85.0882 10.2286 86.1648 9.98631 87.0446C9.75965 87.9399 9.0669 88.4032 8.60082 88.52C8.35928 88.581 8.16237 88.5739 8.03629 88.5477C7.9095 88.5215 7.84858 88.491 7.85141 88.4804Z" fill="#263238"/>
<path d="M31.5326 268.699L31.5128 267.293L20.3113 267.078L20.29 271.452L20.9821 271.497C24.0633 271.671 36.6602 272.162 38.72 271.538C41.0178 270.843 31.5326 268.699 31.5326 268.699Z" fill="#E8505B"/>
<g opacity="0.6">
<path d="M24.3268 271.508C24.1681 270.575 23.6503 269.707 22.9038 269.126C22.1572 268.544 21.2378 268.238 20.2943 268.312L20.2893 271.433L24.3268 271.508Z" fill="white"/>
</g>
<g opacity="0.6">
<path d="M36.1496 269.904C36.1496 269.904 39.4738 270.866 39.0587 271.413C38.6437 271.961 25.8952 271.944 20.2725 271.443L20.2909 271.194L35.1608 271.341C35.1608 271.341 35.5001 269.931 36.1496 269.904Z" fill="white"/>
</g>
<path d="M20.2104 271.107C20.2104 271.112 20.2763 271.119 20.4024 271.128C20.5682 271.138 20.7495 271.149 20.9535 271.162C21.5053 271.187 22.1831 271.217 22.9828 271.252C24.697 271.316 27.0664 271.373 29.6829 271.379C32.3009 271.384 34.671 271.337 36.3851 271.28C37.1855 271.248 37.8634 271.221 38.4145 271.199C38.6192 271.187 38.8005 271.177 38.9663 271.167C39.0923 271.159 39.1582 271.152 39.1582 271.147C39.1582 271.142 39.0916 271.14 38.9656 271.14C38.7998 271.142 38.6185 271.144 38.4131 271.146C37.8613 271.157 37.1834 271.169 36.383 271.184C34.6688 271.217 32.3002 271.248 29.6836 271.243C27.0678 271.237 24.6998 271.195 22.9857 271.156C22.1853 271.137 21.5074 271.122 20.9556 271.108C20.7509 271.105 20.5689 271.102 20.4031 271.1C20.277 271.101 20.2104 271.103 20.2104 271.107Z" fill="#263238"/>
<path d="M35.1604 271.556C35.2015 271.561 35.2341 271.077 35.5408 270.588C35.839 270.094 36.2569 269.846 36.2335 269.812C36.2258 269.778 35.7469 269.988 35.4253 270.517C35.0981 271.043 35.1271 271.565 35.1604 271.556Z" fill="#263238"/>
<path d="M31.6548 269.619C31.686 269.639 31.844 269.448 32.0076 269.192C32.1705 268.935 32.2775 268.711 32.2463 268.691C32.2151 268.671 32.0572 268.862 31.8935 269.119C31.7299 269.375 31.6237 269.6 31.6548 269.619Z" fill="#263238"/>
<path d="M30.7517 269.14C30.7765 269.168 30.9529 269.051 31.1455 268.878C31.3382 268.705 31.4742 268.543 31.4494 268.516C31.4246 268.488 31.2482 268.605 31.0556 268.778C30.8629 268.95 30.7269 269.113 30.7517 269.14Z" fill="#263238"/>
<path d="M30.1814 268.086C30.1807 268.123 30.4421 268.157 30.7636 268.161C31.0859 268.165 31.3473 268.137 31.348 268.101C31.3487 268.064 31.0881 268.03 30.7658 268.025C30.4435 268.022 30.1821 268.049 30.1814 268.086Z" fill="#263238"/>
<path d="M29.986 267.343C29.9733 267.376 30.2573 267.505 30.6356 267.532C31.0138 267.562 31.3141 267.479 31.307 267.444C31.3007 267.406 31.0053 267.427 30.6462 267.398C30.2871 267.371 29.9981 267.305 29.986 267.343Z" fill="#263238"/>
<path d="M32.0356 268.646C32.0349 268.661 32.3098 268.695 32.7532 268.642C32.9742 268.616 33.2356 268.563 33.5175 268.475C33.657 268.425 33.8036 268.389 33.9552 268.295C34.026 268.248 34.1054 268.182 34.133 268.073C34.1628 267.965 34.1054 267.845 34.0246 267.786C33.339 267.429 32.6519 267.814 32.3969 268.168C32.2566 268.349 32.1922 268.525 32.1624 268.646C32.1334 268.769 32.1355 268.839 32.1433 268.84C32.1688 268.85 32.1922 268.558 32.4713 268.228C32.6087 268.067 32.8169 267.91 33.0847 267.831C33.3383 267.757 33.6988 267.737 33.9396 267.891C34.0537 267.975 34.009 268.109 33.8823 268.185C33.764 268.26 33.611 268.306 33.4785 268.356C33.2072 268.449 32.9536 268.51 32.739 268.547C32.3091 268.624 32.0356 268.624 32.0356 268.646Z" fill="#263238"/>
<path d="M32.2208 268.682C32.2307 268.69 32.3369 268.507 32.3043 268.184C32.2873 268.025 32.2293 267.837 32.1095 267.66C31.9828 267.5 31.8205 267.281 31.5124 267.293C31.346 267.314 31.2645 267.503 31.2907 267.624C31.3035 267.749 31.3601 267.857 31.4118 267.944C31.5181 268.124 31.6385 268.269 31.7504 268.379C31.975 268.6 32.1528 268.684 32.1606 268.67C32.1733 268.653 32.0175 268.542 31.8205 268.314C31.7221 268.201 31.6158 268.056 31.5209 267.883C31.4225 267.732 31.3559 267.459 31.5358 267.427C31.7157 267.41 31.8985 267.589 32.0083 267.732C32.1209 267.887 32.1832 268.055 32.2108 268.199C32.264 268.49 32.1974 268.676 32.2208 268.682Z" fill="#263238"/>
<path d="M20.1372 268.265C20.1394 268.29 20.4567 268.235 20.9617 268.295C21.4618 268.351 22.1567 268.557 22.7609 269.039C23.3644 269.523 23.7185 270.155 23.8836 270.63C24.0536 271.109 24.0691 271.431 24.0946 271.428C24.1031 271.427 24.1067 271.347 24.0954 271.203C24.084 271.058 24.05 270.85 23.9742 270.601C23.8283 270.105 23.4749 269.438 22.8452 268.934C22.2155 268.431 21.4866 268.233 20.9709 268.2C20.711 268.182 20.5006 268.194 20.3568 268.215C20.213 268.235 20.1358 268.256 20.1372 268.265Z" fill="#263238"/>
<path d="M25.5171 270.053C25.5122 270.088 26.2396 270.208 27.147 270.217C28.0544 270.229 28.7839 270.124 28.7804 270.089C28.7768 270.05 28.0473 270.093 27.1484 270.082C26.2495 270.074 25.5221 270.014 25.5171 270.053Z" fill="#263238"/>
<path d="M23.329 270.047C23.3021 270.074 23.3885 270.202 23.4629 270.37C23.5394 270.536 23.5776 270.686 23.6159 270.683C23.652 270.683 23.674 270.506 23.5861 270.314C23.499 270.12 23.3531 270.02 23.329 270.047Z" fill="#263238"/>
<path d="M22.5056 269.019C22.4787 269.046 22.551 269.162 22.6664 269.279C22.7819 269.397 22.8966 269.471 22.9235 269.444C22.9498 269.418 22.8782 269.302 22.7628 269.184C22.6473 269.067 22.5325 268.993 22.5056 269.019Z" fill="#263238"/>
<path d="M21.326 268.549C21.3338 268.587 21.4825 268.586 21.6461 268.644C21.8112 268.698 21.9281 268.789 21.9571 268.765C21.9868 268.744 21.8933 268.585 21.6893 268.517C21.4861 268.446 21.3146 268.515 21.326 268.549Z" fill="#263238"/>
<path d="M20.4867 268.327C20.4732 268.362 20.5369 268.419 20.6297 268.455C20.7225 268.491 20.8082 268.492 20.8217 268.457C20.8351 268.423 20.7714 268.365 20.6786 268.329C20.5858 268.293 20.5001 268.292 20.4867 268.327Z" fill="#263238"/>
<path opacity="0.3" d="M7.97485 136.124C7.97485 136.124 9.24559 145.948 18.8073 145.597C28.369 145.246 37.8755 143.439 37.8755 143.439L37.7763 141.581L7.97485 136.124Z" fill="black"/>
<path d="M63.3625 129.883C62.5154 128.521 56.6688 131.776 56.1532 132.015C55.6531 132.247 55.2748 131.518 55.7515 131.327C56.4372 131.052 63.5623 127.994 62.7427 126.648C62.2887 125.902 61.0243 126.842 61.0243 126.842C61.0243 126.842 54.5686 130.195 54.2031 129.547C53.832 128.889 57.5564 126.792 58.8618 126.175C60.1524 125.564 60.3861 124.702 59.641 124.355C59.1324 124.119 55.0893 125.917 53.8121 126.559C52.535 127.2 49.0642 129.022 50.0445 126.732C51.0249 124.442 50.9158 122.312 50.4858 121.756C50.0552 121.201 49.1251 121.597 49.1464 122.37C49.1634 122.995 48.868 124.046 48.6137 124.825C48.4041 125.468 48.0917 126.074 47.6787 126.61C47.1978 127.234 46.7657 127.744 46.3867 128.169C42.6595 129.472 32.0289 132.767 22.0932 131.861C20.299 131.697 15.7367 119.687 15.7367 119.687L3.36642 126.064C3.36642 126.064 3.14401 126.732 8.7823 137.707C16.4577 152.647 51.1424 137.146 51.1424 137.146L51.1297 137.11C54.0197 136.488 57.2114 135.736 58.9043 135.125C62.3921 133.866 62.2845 133.551 62.0684 133.17C61.4883 132.147 55.8486 135.153 56.6858 133.803C57.5245 132.454 64.0128 130.928 63.3625 129.883Z" fill="#FFBE9D"/>
</svg>
