<svg width="21" height="19"
viewBox="0 0 21 19" fill="none" xmlns="http://www.w3.org/2000/svg">
<g clip-path="url(#clip0_14_1176)">
<path
d="M20.9598 4.30176L13.594 10.836C12.7727 11.5627 11.66 11.9708 10.5 11.9708C9.33997 11.9708 8.2273 11.5627 7.406 10.836L0.04025 4.30176C0.028 4.4244 0 4.5354 0 4.65727V13.9719C0.00138938 15.0008 0.462772 15.9873 1.28294 16.7149C2.10311 17.4425 3.2151 17.8518 4.375 17.853H16.625C17.7849 17.8518 18.8969 17.4425 19.7171 16.7149C20.5372 15.9873 20.9986 15.0008 21 13.9719V4.65727C21 4.5354 20.972 4.4244 20.9598 4.30176Z"
fill="#5E5C5C" />
<path
d="M12.3566 9.73834L20.3489 2.64759C19.9617 2.07809 19.4156 1.60671 18.7634 1.2789C18.1111 0.951101 17.3746 0.77794 16.6249 0.776123H4.37488C3.6252 0.77794 2.88869 0.951101 2.2364 1.2789C1.58411 1.60671 1.03805 2.07809 0.650879 2.64759L8.64313 9.73834C9.13625 10.174 9.80389 10.4187 10.4999 10.4187C11.1959 10.4187 11.8635 10.174 12.3566 9.73834Z"
fill="#5E5C5C" />
</g>
<defs>
<clipPath id="clip0_14_1176">
<rect width="21" height="18.6293" fill="white" />
</clipPath>
</defs>
</svg>