<svg width="21" height="19" viewBox="0 0 21 19" fill="none" xmlns="http://www.w3.org/2000/svg">
<g clip-path="url(#clip0_14_609)">
<path d="M10.5 12.6667C9.80777 12.6667 9.13108 12.4809 8.5555 12.133C7.97993 11.785 7.53133 11.2905 7.26642 10.7118C7.00151 10.1332 6.9322 9.49649 7.06725 8.88222C7.2023 8.26794 7.53564 7.7037 8.02513 7.26083C8.51461 6.81796 9.13825 6.51637 9.81718 6.39418C10.4961 6.27199 11.1999 6.33471 11.8394 6.57438C12.4789 6.81406 13.0256 7.21994 13.4101 7.7407C13.7947 8.26145 14 8.87369 14 9.5C14 10.3399 13.6313 11.1453 12.9749 11.7392C12.3185 12.333 11.4283 12.6667 10.5 12.6667ZM4.97263 12.6667H0.875C0.642936 12.6667 0.420376 12.5833 0.256282 12.4348C0.0921872 12.2863 0 12.085 0 11.875C0.00829136 10.7382 0.465259 9.64159 1.28849 8.78281C2.11171 7.92404 3.24701 7.35967 4.48962 7.1915C4.63402 7.1732 4.78118 7.18783 4.91773 7.23407C5.05429 7.28031 5.1759 7.35669 5.27153 7.45627C5.36716 7.55585 5.43378 7.67547 5.46531 7.80427C5.49685 7.93306 5.49232 8.06695 5.45213 8.19375C5.31804 8.61856 5.25001 9.05821 5.25 9.5C5.25025 10.2044 5.42549 10.8997 5.76275 11.5346C5.82618 11.6551 5.85492 11.7881 5.84627 11.9214C5.83763 12.0546 5.79189 12.1837 5.71332 12.2967C5.63474 12.4097 5.52587 12.5028 5.39683 12.5675C5.26779 12.6322 5.12277 12.6663 4.97525 12.6667H4.97263ZM14.875 19H6.125C5.89294 19 5.67038 18.9166 5.50628 18.7681C5.34219 18.6197 5.25 18.4183 5.25 18.2083C5.25 16.9486 5.80312 15.7404 6.78769 14.8496C7.77226 13.9588 9.10761 13.4583 10.5 13.4583C11.8924 13.4583 13.2277 13.9588 14.2123 14.8496C15.1969 15.7404 15.75 16.9486 15.75 18.2083C15.75 18.4183 15.6578 18.6197 15.4937 18.7681C15.3296 18.9166 15.1071 19 14.875 19ZM15.75 6.33333C15.0578 6.33333 14.3811 6.14761 13.8055 5.79966C13.2299 5.4517 12.7813 4.95713 12.5164 4.3785C12.2515 3.79987 12.1822 3.16316 12.3173 2.54888C12.4523 1.93461 12.7856 1.37036 13.2751 0.927497C13.7646 0.48463 14.3883 0.183035 15.0672 0.060848C15.7461 -0.0613385 16.4499 0.00137206 17.0894 0.24105C17.7289 0.480727 18.2756 0.886607 18.6601 1.40736C19.0447 1.92812 19.25 2.54036 19.25 3.16667C19.25 4.00652 18.8813 4.81197 18.2249 5.40584C17.5685 5.99971 16.6783 6.33333 15.75 6.33333ZM5.25 6.33333C4.55777 6.33333 3.88108 6.14761 3.3055 5.79966C2.72993 5.4517 2.28133 4.95713 2.01642 4.3785C1.75152 3.79987 1.6822 3.16316 1.81725 2.54888C1.9523 1.93461 2.28564 1.37036 2.77513 0.927497C3.26461 0.48463 3.88825 0.183035 4.56718 0.060848C5.24612 -0.0613385 5.94985 0.00137206 6.58939 0.24105C7.22893 0.480727 7.77556 0.886607 8.16014 1.40736C8.54473 1.92812 8.75 2.54036 8.75 3.16667C8.75 4.00652 8.38125 4.81197 7.72487 5.40584C7.0685 5.99971 6.17826 6.33333 5.25 6.33333ZM20.125 12.6667H16.0274C15.8799 12.6663 15.7348 12.6322 15.6058 12.5675C15.4768 12.5028 15.3679 12.4097 15.2893 12.2967C15.2107 12.1837 15.165 12.0546 15.1564 11.9214C15.1477 11.7881 15.1764 11.6551 15.2399 11.5346C15.5762 10.8995 15.7506 10.2042 15.75 9.5C15.7486 9.05802 15.6791 8.61837 15.5435 8.19375C15.5031 8.06658 15.4985 7.93228 15.5303 7.80311C15.562 7.67394 15.629 7.55403 15.7252 7.45434C15.8214 7.35465 15.9436 7.27836 16.0808 7.23244C16.2179 7.18653 16.3656 7.17245 16.5104 7.1915C17.753 7.35967 18.8883 7.92404 19.7115 8.78281C20.5347 9.64159 20.9917 10.7382 21 11.875C21 12.085 20.9078 12.2863 20.7437 12.4348C20.5796 12.5833 20.3571 12.6667 20.125 12.6667Z" fill="#524F4F"/>
</g>
<defs>
<clipPath id="clip0_14_609">
<rect width="21" height="19" fill="white"/>
</clipPath>
</defs>
</svg>
