<svg width="21" height="19" viewBox="0 0 21 19" fill="none" xmlns="http://www.w3.org/2000/svg">
<g clip-path="url(#clip0_14_614)">
<path d="M6.96238 11.0834H14.0376C15.1875 11.0846 16.29 11.4985 17.1031 12.2342C17.9162 12.9698 18.3736 13.9673 18.375 15.0077V19H2.625V15.0077C2.62639 13.9673 3.08381 12.9698 3.89692 12.2342C4.71004 11.4985 5.81246 11.0846 6.96238 11.0834Z" fill="#524F4F"/>
<path d="M10.5 9.5C7.6005 9.5 5.25 7.37335 5.25 4.75C5.25 2.12665 7.6005 0 10.5 0C13.3995 0 15.75 2.12665 15.75 4.75C15.75 7.37335 13.3995 9.5 10.5 9.5Z" fill="#524F4F"/>
</g>
<defs>
<clipPath id="clip0_14_614">
<rect width="21" height="19" fill="white" transform="matrix(-1 0 0 1 21 0)"/>
</clipPath>
</defs>
</svg>
